<?xml version="1.0" encoding="UTF-8" standalone="no"?>
<!-- Generator: Adobe Illustrator 16.0.3, SVG Export Plug-In . SVG Version: 6.00 Build 0)  -->

<svg
   version="1.1"
   id="Capa_1"
   x="0px"
   y="0px"
   width="2838.1462"
   height="1080"
   viewBox="0 0 2838.1461 1080"
   enable-background="new 0 0 595.28 841.89"
   xml:space="preserve"
   sodipodi:docname="Logo de Steven Universe.svg"
   inkscape:version="1.1 (c68e22c387, 2021-05-23)"
   xmlns:inkscape="http://www.inkscape.org/namespaces/inkscape"
   xmlns:sodipodi="http://sodipodi.sourceforge.net/DTD/sodipodi-0.dtd"
   xmlns="http://www.w3.org/2000/svg"
   xmlns:svg="http://www.w3.org/2000/svg"><defs
   id="defs241" /><sodipodi:namedview
   id="namedview239"
   pagecolor="#ffffff"
   bordercolor="#666666"
   borderopacity="1.0"
   inkscape:pageshadow="2"
   inkscape:pageopacity="0.0"
   inkscape:pagecheckerboard="0"
   showgrid="false"
   fit-margin-top="0"
   fit-margin-left="0"
   fit-margin-right="0"
   fit-margin-bottom="0"
   inkscape:zoom="0.34940006"
   inkscape:cx="1360.9042"
   inkscape:cy="221.80878"
   inkscape:window-width="1920"
   inkscape:window-height="1017"
   inkscape:window-x="1912"
   inkscape:window-y="-8"
   inkscape:window-maximized="1"
   inkscape:current-layer="Capa_1" />
<g
   id="g236"
   transform="matrix(0.56762915,0,0,0.56762915,1248.7841,304.57734)">
	<g
   id="g234">
		
		
		<path
   fill-rule="evenodd"
   clip-rule="evenodd"
   fill="#ff4019"
   d="m -2196.228,410.878 c 4.707,-25.726 12.58,-50.342 25.63,-73.142 22.995,-40.173 54.446,-71.3 97.138,-90.198 20.338,-9.004 41.675,-13.403 64.025,-13.335 81.654,0.252 163.31,0.282 244.964,0.395 3.535,0.005 7.07,10e-4 10.584,10e-4 0.319,-4.306 -2.256,-6.301 -3.813,-8.723 -39.98,-62.205 -79.87,-124.47 -120.096,-186.517 -12.304,-18.978 -18.242,-39.78 -20.324,-61.938 -4.203,-44.724 7.046,-86.174 29.187,-124.435 39.915,-68.975 98.878,-113.014 176.926,-130.765 14.986,-3.409 30.244,-4.948 45.601,-4.944 156.648,0.038 313.298,0.121 469.946,0.265 24.196,0.022 46.865,5.269 66.545,20.367 10.085,7.737 18.96,16.768 28.198,25.417 1.459,1.366 2.783,2.879 4.27,4.213 7.251,6.512 6.053,7.884 13.751,-0.194 23.098,-24.237 50.456,-41.142 83.705,-47.511 14.16,-2.713 28.51,-2.283 42.842,-2.146 51.983,0.496 103.968,0.791 155.95,1.349 60.98,0.653 121.957,1.747 182.938,2.121 18.967,0.116 34.026,7.88 47.485,20.123 8.134,7.399 16,15.098 24.257,22.354 7.911,6.952 6.72,7.168 14.126,-0.149 22.633,-22.36 49.403,-36.949 80.733,-43.031 10.511,-2.04 21.132,-2.892 31.792,-2.899 88.324,-0.07 176.649,0.209 264.972,-0.201 24.589,-0.113 45.73,7.382 64.058,23.393 10.52,9.189 20.883,18.558 31.648,28.143 9.627,-9.886 19.512,-18.71 30.585,-26.194 20.673,-13.976 43.655,-21.672 68.263,-23.024 28.398,-1.56 54.068,6.654 74.762,27.092 32.005,31.61 64.68,62.558 95.23,95.616 1.105,1.196 1.755,2.814 2.834,4.593 7.302,-6.414 11.592,-13.16 16.194,-19.578 12.228,-17.051 23.685,-34.686 36.483,-51.29 23.644,-30.674 54.498,-50.873 92.728,-58.076 34.383,-6.479 66.337,-0.608 93.313,23.495 8.447,7.548 16.649,15.369 25.003,23.022 5.496,5.036 5.544,5.02 10.933,-0.22 21.224,-20.635 46.011,-34.901 74.813,-42.096 12.345,-3.084 24.885,-4.663 37.562,-4.668 75.99,-0.028 151.981,0.044 227.972,0.182 15.324,0.027 30.673,1.132 45.967,0.568 20.14,-0.742 37.039,6.516 52.514,18.455 10.312,7.955 19.754,16.873 29.053,25.959 1.888,1.844 3.949,3.51 6.242,5.533 9.034,-9.116 18.236,-17.77 28.838,-24.751 25.403,-16.73 52.924,-26.404 83.729,-24.718 19.711,1.078 37.507,6.594 53.228,19.645 37.955,31.509 74.582,64.534 112.068,96.572 9.098,7.775 18.326,15.396 28.09,23.586 3.566,-8.528 5.021,-16.951 6.832,-25.195 12.46,-56.743 48.084,-92.104 102.088,-109.995 22.546,-7.469 45.77,-8.16 69.012,-2.459 11.889,2.917 22.177,8.999 31.74,16.325 7.931,6.075 15.498,12.624 23.259,18.923 2.024,1.643 3.604,3.989 6.788,4.411 3.727,-4.472 7.309,-9.253 11.379,-13.574 21.165,-22.468 47.121,-34.186 78.129,-34.24 69.32,-0.121 138.642,-0.354 207.961,-0.107 7.765,0.027 11.817,-2.538 15.681,-9.03 33.214,-55.823 68.057,-110.643 102.741,-165.558 10.908,-17.27 23.508,-33.104 39.053,-46.511 23.274,-20.073 50.172,-30.493 80.855,-27.721 19.843,1.793 37.93,9.261 52.534,23.956 21.142,21.271 42.735,42.091 64.099,63.142 27.063,26.666 53.568,53.926 81.299,79.878 20.828,19.491 31.661,43.102 35.427,70.756 1.786,13.115 0.597,11.377 13.423,11.549 18.324,0.247 36.656,-0.179 54.984,-0.369 10.745,-0.112 21.271,1.414 31.523,4.501 11.656,3.511 21.801,9.51 30.537,18.212 51.707,51.503 103.568,102.852 155.371,154.258 1.655,1.643 3.207,3.391 4.873,5.021 15.067,14.747 19.547,32.719 16.331,53.104 -4.707,29.841 -20.368,53.015 -43.386,71.793 -8.314,6.783 -17.615,11.975 -26.916,17.184 -59.262,33.191 -118.496,66.431 -177.855,99.447 -5.069,2.819 -6.854,5.482 -6.041,11.635 4.661,35.326 8.707,70.734 12.986,106.111 0.44,3.635 0.959,7.265 1.597,10.87 1.284,7.262 1.333,7.399 8.899,7.17 54.314,-1.646 108.642,-0.419 162.961,-0.87 12.684,-0.105 25.311,0.646 37.947,1.494 11.742,0.789 21.801,5.088 30.555,13.087 53.875,49.225 107.881,98.306 161.777,147.506 4.91,4.483 9.533,9.315 13.991,14.255 11.079,12.275 17.22,26.746 18.552,43.242 1.111,1.141 0.459,3.058 1.801,4.098 0,4.667 0,9.333 0,14 -2.236,2.363 0.051,5.727 -1.809,8.173 -3.366,32.489 -19.014,58.407 -42.859,79.896 -3.454,3.113 -7.203,5.899 -10.913,8.917 1.177,3.791 4.769,5.313 7.425,7.634 13.684,11.947 25.836,25.155 33.281,41.95 9.82,22.151 8.879,44.776 1.496,67.314 -8.568,26.152 -24.871,46.831 -46.277,63.753 -2.828,2.236 -6.297,3.751 -8.643,7.518 7.742,7.667 15.884,15.018 23.188,23.123 12.518,13.891 21.924,29.616 22.373,48.928 0.337,14.46 -3.633,28.287 -8.658,41.794 -13.5,36.289 -38.297,62.697 -71.457,81.755 -10.875,6.25 -22.549,9.431 -35.264,9.417 -112.664,-0.113 -225.328,-0.062 -337.992,-0.084 -4.33,0 -8.664,-0.193 -12.99,-0.408 -14.84,-0.74 -27.441,-5.769 -38.398,-16.517 -18.07,-17.728 -37.137,-34.438 -55.795,-51.566 -5.009,-4.599 -5.15,-4.7 -10.182,0.352 -35.947,36.104 -79.522,57.612 -129.246,66.894 -39.245,7.325 -78.067,4.984 -116.688,-5.516 -47.843,-13.006 -91.75,-33.697 -131.062,-63.93 -10.297,-7.92 -20.145,-16.416 -29.319,-25.663 -2.768,-2.79 -5.066,-6.228 -8.954,-7.696 -2.022,1.07 -2.477,3.063 -3.28,4.827 -21.119,46.398 -56.649,75.55 -105.929,87.885 -17.671,4.423 -35.632,4.573 -53.495,0.729 -8.828,-1.899 -16.941,-5.19 -24.387,-10.785 -20.028,-15.048 -38.354,-32.031 -57.002,-48.658 -10.177,-9.073 -20.425,-18.048 -31.066,-26.063 -3.363,0.848 -3.44,3.491 -4.408,5.457 -23.835,48.389 -61.895,78.392 -115.199,87.854 -16.121,2.861 -32.555,2.004 -48.631,-1.993 -10.302,-2.561 -18.605,-8.724 -26.859,-14.942 -13.069,-9.846 -24.5,-21.583 -36.954,-32.141 -2.034,-1.724 -4.231,-3.287 -6.08,-5.19 -3.425,-3.522 -5.799,-2.907 -8.688,0.945 -8.822,11.763 -18.935,22.356 -30.165,31.883 -18.469,15.668 -39.359,23.87 -63.985,23.768 -87.942,-0.366 -175.887,-0.107 -263.829,-0.159 -22.171,-0.012 -43.801,-2.908 -64.233,-12.326 -10.458,-4.82 -19.269,-11.768 -27.646,-19.467 -28.709,-26.38 -57.438,-52.738 -86.219,-79.038 -8.578,-7.838 -17.451,-15.339 -27.594,-22.528 -4.259,6.319 -8.214,12.355 -12.336,18.274 -11.421,16.402 -23.115,32.618 -34.325,49.162 -14.792,21.832 -34.322,37.904 -58.081,48.987 -39.951,18.636 -81.347,24.29 -124.471,13.374 -17.721,-4.485 -33.592,-12.539 -47.201,-24.926 -41.897,-38.132 -83.84,-76.214 -125.803,-114.271 -2.87,-2.603 -5.381,-5.778 -9.811,-7.513 -2.901,7.098 -4.074,14.253 -5.669,21.256 -5.583,24.521 -12.946,48.258 -28.913,68.383 -27.827,35.075 -63.426,56.498 -108.422,60.475 -22.461,1.986 -43.491,-2.167 -62.045,-16.685 -14.988,-11.728 -29.183,-24.288 -43.348,-36.931 -2.701,-2.411 -5.388,-4.841 -8.014,-7.202 -4.775,4.697 -9.297,9.097 -13.766,13.548 -32.812,32.687 -72.881,46.68 -118.611,45.894 -13.425,-0.23 -24.979,-5.001 -35.641,-13.532 -47.113,-37.699 -92.35,-77.607 -138.303,-116.672 -3.271,-2.781 -6.533,-5.576 -9.522,-8.129 -3.541,1.341 -2.937,4.031 -3.339,6.162 -4.812,25.499 -12.617,49.949 -29.359,70.23 -36.256,43.916 -82.79,63.158 -139.714,56.331 -5.489,-0.658 -10.163,-3.011 -14.852,-5.521 -12.398,-6.638 -23.31,-15.433 -34.476,-23.859 -6.085,-4.592 -11.949,-9.515 -18.657,-13.25 -3.505,3.234 -3.279,7.558 -4.243,11.27 -11.215,43.18 -22.032,86.462 -33.372,129.608 -6.773,25.773 -19.62,48.706 -35.02,70.247 -28.531,39.913 -65.175,71.14 -106.14,97.412 -66.295,42.517 -138.786,70.131 -215.32,87.563 -40.958,9.328 -82.477,14.789 -124.309,18.776 -33.325,3.176 -66.64,2.979 -99.879,1.946 -31.236,-0.971 -62.381,-5.121 -93.23,-10.652 -42.373,-7.598 -83.672,-18.891 -123.184,-36.226 -23.536,-10.326 -46.131,-22.401 -67.194,-37.168 -5.703,-3.998 -10.906,-8.742 -16.153,-13.354 -60.822,-53.473 -120.929,-107.736 -179.821,-163.331 -8.475,-8.001 -16.817,-16.224 -24.48,-24.989 -33.987,-38.882 -46.831,-84.519 -41.045,-135.333 3.738,-32.829 13.968,-64.356 21.658,-96.383 3.492,-14.546 7.065,-29.073 10.702,-44.015 -3.747,-2 -7.417,-1.173 -10.877,-1.177 -60.331,-0.057 -120.663,-0.351 -180.991,0.065 -43.56,0.301 -81.727,-13.803 -114.92,-41.414 -25.113,-20.89 -48.108,-44.156 -72.14,-66.264 -37.524,-34.518 -74.752,-69.357 -112.13,-104.034 -18.732,-17.379 -30.817,-39.113 -40.584,-62.281 -7.275,-17.256 -11.925,-35.294 -14.519,-53.849 -1.559,-5.968 -2.088,-12.147 -3.737,-18.096 0,-5.333 0,-10.667 0,-16 2.212,-6.654 1.931,-13.561 2.07,-20.428 0.663,-3.183 0.645,-6.481 1.7,-9.589 z"
   id="path6" />
		<path
   fill-rule="evenodd"
   clip-rule="evenodd"
   fill="#fb6446"
   d="m -2196.34,420.484 c 0.9,7.183 0.135,14.066 -3.66,20.406 0,-4.667 0,-9.333 0,-14 2.351,-1.489 -0.796,-6.119 3.66,-6.406 z"
   id="path8" />
		<path
   fill-rule="evenodd"
   clip-rule="evenodd"
   fill="#fcb6a9"
   d="m -2200,456.89 c 3.303,5.607 4.309,11.688 3.737,18.096 -2.17,-1.466 -1.34,-4.77 -3.737,-6.096 0,-4 0,-8 0,-12 z"
   id="path10" />
		<path
   fill-rule="evenodd"
   clip-rule="evenodd"
   fill="#fdd7cf"
   d="m -2196.34,420.484 c -2.007,1.687 -1.344,4.897 -3.66,6.406 0,-3.333 0,-6.667 0,-10 2.582,-1.173 1.444,-4.68 3.772,-6.012 -0.037,3.203 -0.074,6.405 -0.112,9.606 z"
   id="path12" />
		<path
   fill-rule="evenodd"
   clip-rule="evenodd"
   fill="#f6917e"
   d="m 2798.191,517.063 c -0.286,-2.921 -0.811,-5.895 1.809,-8.173 0,2.667 0,5.333 0,8 -0.613,-0.047 -1.215,0.012 -1.809,0.173 z"
   id="path14" />
		<path
   fill-rule="evenodd"
   clip-rule="evenodd"
   fill="#febeb1"
   d="m 2800,494.89 c -2.139,-0.689 -2.065,-2.352 -1.801,-4.098 0.598,0.089 1.197,0.121 1.801,0.098 0,1.333 0,2.667 0,4 z"
   id="path16" />
		<path
   fill-rule="evenodd"
   clip-rule="evenodd"
   fill="#fffdd8"
   d="m -1630.628,823.543 c 15.131,-60.03 30.23,-120.067 45.415,-180.084 3.481,-13.763 3.105,-11.853 -8.956,-11.856 -134.974,-0.039 -269.951,-0.615 -404.919,0.255 -56.974,0.368 -100.948,-23.068 -135.079,-66.839 -27.287,-34.993 -41.935,-75.371 -41.091,-119.644 1.471,-77.142 35.953,-135.812 104.019,-173.417 17.067,-9.43 35.983,-14.522 55.559,-14.56 94.308,-0.179 188.617,0.073 282.926,0.205 6.569,0.01 13.147,1.32 19.762,0.066 1.025,-3.314 -1.318,-5.193 -2.604,-7.328 -23.213,-38.528 -48.284,-75.864 -72.941,-113.466 -20.273,-30.916 -40.036,-62.177 -60.77,-92.78 -30.983,-45.73 -34.601,-94.802 -15.361,-144.895 32.398,-84.356 94.109,-136.017 182.371,-155.576 9.699,-2.149 19.725,-2.84 29.785,-2.834 158.969,0.093 317.938,0.091 476.906,0.022 14.897,-0.006 29.158,2.186 42.36,9.508 20.761,11.513 32.359,29.343 35.354,52.592 2.637,20.457 -2.198,39.684 -11.526,57.892 -1.359,2.652 -2.662,5.335 -3.99,8.003 -2.379,12.706 -12.154,20.563 -20.537,28.588 -24.953,23.89 -54.238,37.266 -89.909,36.628 -52.941,-0.946 -105.912,-0.316 -158.869,-0.101 -3.898,0.016 -9.7,-2.838 -11.216,4.233 0.527,2.499 2.191,4.352 3.536,6.376 37,56.236 74.126,112.389 110.935,168.747 48.468,74.208 97.237,148.233 142.932,224.21 19.042,31.662 30.405,65.623 31.414,102.987 0.27,9.984 0.575,19.857 -0.376,29.789 -12.851,55.752 -27.181,111.132 -41.232,166.581 -9.559,37.723 -19.26,75.409 -28.695,113.164 -1.265,5.063 -1.63,10.683 -6.573,14.097 -5.07,2.298 -10.474,1.611 -15.765,1.617 -51.979,0.051 -103.958,0.017 -155.937,0.058 -3.631,0.003 -7.321,-0.56 -11.831,0.89 5.811,6.75 12.417,12.012 18.777,17.475 11.627,9.984 23.792,19.324 35.433,29.293 3.447,2.953 7.839,5.393 7.619,10.969 -2.786,3.61 -7.018,3.56 -10.885,4.076 -37.593,5.017 -75.292,9.005 -113.25,9.419 -15.315,0.166 -30.452,2.543 -45.819,2.229 -49.208,-1.005 -98.332,-3.161 -147.3,-8.295 -4.083,-0.429 -7.926,-1.17 -10.464,-4.84 0.14,-0.814 0.28,-1.628 0.42,-2.442 0.123,-0.337 0.247,-0.674 0.372,-1.012 z"
   id="path18" />
		<path
   fill-rule="evenodd"
   clip-rule="evenodd"
   fill="#fffdd8"
   d="m 2563.056,443.779 c -5.002,2.641 -9.901,5.502 -15.026,7.877 -11.008,5.102 -22.509,7.626 -34.793,7.569 -50.309,-0.229 -100.617,-0.16 -150.927,-0.059 -13.461,0.027 -10.375,-1.98 -14.452,11.008 -0.684,2.18 -1.031,4.465 -1.653,7.231 3.269,1.851 6.607,1.119 9.741,1.125 60.635,0.115 121.279,0.785 181.903,-0.032 26.282,-0.354 46.384,9.306 62.253,29.444 10.139,14.359 10.307,30.85 7.706,46.853 -4.552,28.008 -19.91,50.126 -41.79,67.846 -2.342,1.898 -4.956,3.316 -8.029,3.673 -11.521,5.964 -23.04,11.79 -35.861,14.764 -16.121,3.738 -32.42,3.139 -48.713,2.916 -45.969,-0.627 -91.936,-0.732 -137.904,0.046 -7.992,0.136 -16.008,0.377 -23.98,-0.046 -5.449,-0.289 -7.824,1.963 -8.703,7.003 -0.621,3.559 -1.752,7.027 -2.727,10.816 3.77,1.934 7.459,1.112 10.958,1.113 69.304,0.022 138.62,0.669 207.907,-0.416 27.313,-0.428 48.6,8.554 65.293,29.617 11.098,16.09 10.422,34.256 6.893,51.828 -5.617,27.974 -22.395,49.138 -45.371,65.556 -2.435,1.74 -4.971,3.361 -8.127,3.459 -5.064,2.475 -10.044,5.146 -15.209,7.388 -14.324,6.217 -29.488,7.915 -44.926,7.917 -93.324,0.006 -186.648,-0.146 -279.971,0.117 -20.797,0.059 -41.217,-1.357 -61.063,-7.933 -2.618,-0.462 -5.397,-0.199 -7.802,-1.702 -0.874,-0.372 -1.705,-0.806 -2.536,-1.261 -1.34,-0.667 -2.65,-1.372 -3.951,-2.12 -21.164,-14.653 -31.689,-35.074 -32.949,-60.568 -0.712,-14.411 1.421,-28.406 4.934,-42.374 8.51,-33.829 17.437,-67.557 25.125,-101.587 2.143,-8.84 4.188,-17.706 6.8,-26.429 14.574,-58.159 29.823,-116.147 43.207,-174.59 5.009,-28.088 16.911,-52.795 35.851,-74.228 6.015,-6.807 13.154,-12.082 20.248,-17.535 21.686,-16.048 46.18,-24.451 72.949,-25.786 10.23,-0.511 20.336,-3.542 30.676,-1.708 4.881,0.865 9.881,1.322 14.341,3.798 23.626,0.146 47.253,0.391 70.878,0.42 44.273,0.054 88.547,-0.048 132.82,0.004 5.313,0.006 10.637,0.429 15.936,0.885 19.271,1.655 33.295,12.216 44.963,26.709 12.225,20.226 10.674,41.659 3.871,62.728 -7.105,22.009 -20.31,40.326 -38.971,54.382 -2.908,2.189 -5.774,4.63 -9.819,4.282 z"
   id="path20" />
		<path
   fill-rule="evenodd"
   clip-rule="evenodd"
   fill="#fffdd8"
   d="m 1612.152,636.202 c -0.55,11.004 0.348,21.949 1.049,32.922 1.277,19.955 2.492,40.019 -3.249,59.539 -15.854,53.912 -71.984,96.918 -128.442,90.466 -9.021,-1.031 -17.488,-3.926 -26.077,-6.504 -4.767,0.388 -8.224,-2.3 -11.499,-5.131 -16.315,-14.106 -25.52,-31.296 -27.109,-53.451 -2.399,-33.462 -2.357,-67.039 -5.568,-100.444 -1.049,-10.91 -1.502,-11.704 -12.545,-11.848 -8.646,-0.112 -17.296,-0.177 -25.938,0.028 -10.977,0.261 -13.073,1.827 -15.707,12.763 -7.157,29.728 -12.535,59.917 -23.215,88.719 -2.06,5.554 -3.346,11.631 -9.036,15.026 -18.872,32.945 -46.057,55.248 -83.029,65.201 -19.583,5.271 -38.747,3.927 -57.701,-2.786 -3.493,-0.67 -7.128,-0.788 -10.328,-2.638 -29.535,-19.17 -35.504,-47.702 -31.671,-80.053 0.427,-3.606 1.208,-7.194 1.976,-10.761 2.921,-10.22 4.912,-20.687 8.044,-30.856 12.148,-48.225 24.77,-96.328 35.88,-144.805 2.162,-7.58 3.881,-15.276 5.732,-22.938 11.84,-45.306 21.951,-91.057 34.598,-136.146 11.232,-40.053 34.867,-70.373 72.573,-89.032 2.382,-1.179 4.643,-2.587 7.068,-3.729 9.317,-3.993 19.075,-5.966 29.148,-5.964 59.534,0.014 119.07,-0.41 178.602,0.19 29.86,-0.636 59.729,0.15 89.573,-0.445 18.47,-1.333 35.188,4.902 51.225,12.881 18.459,9.185 35.348,20.665 47.568,37.854 3.802,8.848 8.955,16.995 12.683,25.94 14.893,35.73 14.994,71.826 3.774,108.336 -16.134,52.497 -47.574,93.973 -92.132,125.479 -9.175,6.487 -15.851,12.745 -13.929,24.838 0.404,2.547 -0.126,5.349 -2.318,7.349 z"
   id="path22" />
		<path
   fill-rule="evenodd"
   clip-rule="evenodd"
   fill="#fcce2e"
   d="m -1631.422,826.999 c 9.655,2.87 19.742,2.311 29.603,3.519 16.13,1.975 32.394,3.058 48.634,3.896 20.237,1.047 40.507,1.497 60.765,2.146 27.938,0.896 55.846,-0.753 83.698,-2.21 31.122,-1.629 62.255,-4.035 93.077,-9.107 3.884,-0.639 8.054,0.501 11.658,-1.857 0.772,-0.721 1.853,-1.145 2.643,-0.566 10.803,7.898 22.232,15.093 30.157,26.301 -0.797,8.037 -6.29,13.769 -10.218,20.193 -20.956,34.287 -41.683,68.703 -62.022,105.047 18.733,-7.847 34.843,-17.702 51.41,-26.612 26.346,-14.17 52.727,-28.28 78.814,-42.928 3.741,-2.101 7.605,-4.255 12.239,-3.501 9.851,3.597 17.809,10.293 26.202,16.212 24.468,17.256 48.768,34.753 73.973,50.936 2.179,1.399 4.048,3.543 7.555,3.495 1.397,-9.958 -0.93,-19.83 -1.845,-29.542 -2.523,-26.79 -3.691,-53.717 -7.277,-80.388 -1.628,-12.111 1.686,-20.833 12.936,-26.104 10.451,-5.623 21.549,-10.046 31.394,-16.813 31.145,-16.454 61.786,-33.823 94.166,-51.371 -21.036,-3.786 -40.627,-1.587 -60.099,-2.261 -5.245,-0.182 -10.689,1.063 -15.635,-1.819 -1.94,-5.184 2.903,-5.156 5.347,-6.438 11.528,-6.039 23.964,-9.924 36.088,-14.519 76.417,-28.962 149.41,-64.987 220,-106.036 40.596,-23.607 79.251,-50.175 118.029,-76.576 4.794,-3.264 9.582,-8.939 16.771,-4.684 -0.484,15.703 -6.08,30.371 -9.773,45.355 -3.137,12.729 -4.643,26.074 -10.977,37.921 -24.383,14.941 -49.418,28.82 -73.392,44.489 -46.604,30.461 -91.226,63.552 -133.825,99.388 -36.187,30.439 -71.304,62.078 -103.992,96.246 -64.147,67.054 -122.046,139.03 -170.351,218.497 -17.133,28.186 -33.784,56.604 -48.062,86.362 -1.583,3.3 -3.119,6.659 -6.266,8.866 -7.53,-0.17 -14.868,2.664 -22.466,1.432 -13.163,0.256 -26.354,-1.055 -39.489,0.723 -0.705,0 -1.409,-0.01 -2.113,-0.013 -11.115,-1.82 -22.305,-0.387 -33.454,-0.758 -11.259,-0.495 -22.585,-0.389 -33.763,-1.623 -18.135,-2.003 -36.237,-4.488 -54.236,-7.475 -41.475,-6.882 -81.646,-18.371 -120.403,-34.81 -31.78,-13.48 -61.319,-30.618 -87.728,-52.898 -32.971,-27.818 -56.552,-61.621 -65.537,-104.534 -4.656,-22.235 -3.811,-44.487 1.973,-66.21 8.807,-33.072 15.83,-66.604 25.791,-99.371 z"
   id="path24" />
		<path
   fill-rule="evenodd"
   clip-rule="evenodd"
   fill="#fffdd8"
   d="m -516.587,-196.342 c 9.793,-12.655 19.914,-24.954 32.884,-34.644 24.221,-18.096 51.119,-28.076 81.57,-28.047 45.65,0.044 91.301,-0.081 136.951,-0.104 41.986,-0.021 83.972,0.06 125.957,-0.052 10.021,-0.026 19.972,0.24 29.791,2.427 2.867,4.042 1.495,8.295 0.513,12.465 -11.436,48.515 -27.637,95.596 -43.124,142.889 -1.022,3.124 -2.021,6.4 -5.41,8.008 -14.505,2.201 -29.084,3.415 -43.751,3.423 -46.319,0.024 -92.64,-0.087 -138.959,0.121 -6.099,0.027 -16.048,-2.431 -15.367,7.287 0.536,7.638 9.851,4.113 15.128,4.143 51.984,0.294 103.97,0.162 155.955,0.198 5.313,0.004 10.676,-0.461 15.888,1.021 6.548,3.044 3.275,7.84 1.734,11.873 -8.31,21.747 -17.429,43.193 -27.489,64.156 -13.232,27.57 -25.784,55.479 -40.05,82.549 -2.45,4.647 -4.222,9.948 -10.085,11.716 -13.58,1.878 -27.268,1.395 -40.817,0.738 -32.864,-1.592 -65.685,0.279 -98.522,0.187 -3.323,-0.01 -6.649,-0.083 -9.967,0.19 -4.699,0.387 -9.106,1.83 -8.55,7.446 0.515,5.198 5.477,4.003 8.813,4.02 40.218,0.193 80.438,0.073 120.656,0.129 5.304,0.007 10.646,-0.414 15.868,0.867 7.15,2.995 3.368,7.501 1.274,11.37 -10.946,20.227 -22.98,39.829 -35.568,59.052 -20.072,30.653 -41.113,60.658 -62.285,90.564 -2.9,4.097 -5.893,8.145 -11.176,9.505 -5.938,1.183 -11.935,0.774 -17.902,0.778 -47.169,0.029 -94.341,0.326 -141.506,-0.106 -26.074,-0.238 -50.749,-6.012 -71.739,-22.787 -22.766,-23.015 -27.049,-51.381 -21.092,-81.34 7.189,-36.15 17.052,-71.739 26.199,-107.462 1.482,-5.794 2.977,-11.586 4.022,-17.479 8.196,-36.027 17.154,-71.868 26.774,-107.543 9.193,-31.262 15.982,-63.14 24.211,-94.648 3.027,-11.592 6.322,-23.09 11.845,-33.8 1.815,-3.521 3.299,-7.351 7.326,-9.11 z"
   id="path26" />
		<path
   fill-rule="evenodd"
   clip-rule="evenodd"
   fill="#fffdd8"
   d="m -1063.815,-93.337 c -7.066,-10.238 -12.081,-21.269 -14.455,-33.615 -3.897,-20.271 0.641,-39.306 9.399,-57.094 19.745,-40.1 51.777,-64.979 95.856,-73.883 6.583,-1.329 13.242,-1.284 19.892,-1.284 111.52,0.006 223.038,0.097 334.557,0.033 26.73,-0.016 48.4,10.092 65.008,31.039 15.091,18.158 14.021,39.533 10.661,60.608 -5.199,32.622 -24.82,56.479 -49.947,76.43 -26.688,19.8 -56.514,28.763 -89.753,26.001 -6.656,-0.554 -13.238,0.367 -19.765,1.543 -4.06,3.649 -4.313,8.88 -5.524,13.629 -18.335,71.91 -36.264,143.922 -54.048,215.97 -3.359,13.608 -7.572,26.909 -14.188,39.349 -26.622,39.897 -64.724,60.884 -111.413,68.128 -27.396,4.251 -53.701,0.733 -79.167,-9.675 -34.483,-14.094 -51.6,-45.67 -43.978,-82.156 9.53,-45.617 22.164,-90.475 34.267,-135.455 3.915,-16.692 8.813,-33.144 12.192,-49.967 4.239,-17.483 8.904,-34.861 12.993,-52.38 2.056,-8.808 1.153,-9.812 -7.927,-10.126 -6.004,-0.209 -11.947,0.633 -17.922,1.1 -21.039,1.643 -41.91,1.157 -61.782,-7.334 -9.537,-5.485 -20.501,-9.285 -24.956,-20.861 z"
   id="path28" />
		<path
   fill-rule="evenodd"
   clip-rule="evenodd"
   fill="#fffdd8"
   d="m 1970.482,808.456 c -18.324,7.961 -36.872,15.077 -56.657,18.818 -32.567,6.157 -64.919,5.731 -97.05,-2.273 -37.648,-9.379 -73.742,-22.705 -106.956,-43.188 -13.648,-8.416 -26.688,-17.724 -38.893,-28.008 -17.49,-14.738 -21.377,-34.522 -18.154,-56.232 1.082,-7.292 3.89,-14.089 6.85,-20.801 3.132,-14.142 12.974,-23.758 23.106,-32.794 16.097,-14.354 35.035,-23.127 56.703,-24.842 11.478,-0.908 22.378,2.049 32.818,7.048 26.761,12.815 52.466,27.685 79.218,40.505 10.953,5.249 17.162,4.476 24.645,-2.688 9.468,-9.065 9.263,-17.077 -1.604,-24.742 -16.338,-11.522 -33.105,-22.432 -49.918,-33.267 -15.951,-10.28 -32.479,-19.777 -46.796,-32.405 -27.886,-24.597 -41.21,-55.313 -40.974,-92.729 0.189,-30.019 10.181,-56.749 23.209,-82.896 35.807,-62.611 89.757,-99.266 160.877,-108.832 32.168,-4.327 64.383,-0.765 95.177,11.713 35.292,14.301 70.047,29.408 99.644,54.084 7.658,6.386 15.396,12.762 20.462,21.643 10.573,32.803 1.694,61.073 -20.823,85.651 -23.843,26.024 -52.714,38.831 -88.583,31.338 -18.844,-10.622 -36.173,-23.577 -54.057,-35.685 -6.335,-4.289 -12.639,-8.629 -19.005,-12.874 -6.047,-4.032 -11.827,-4.697 -16.637,1.751 -4.921,6.6 -1,10.998 4.078,15.085 19.713,15.863 40.291,30.581 60.861,45.276 20.605,14.721 40.139,30.734 59.448,47.058 3.565,3.015 6.815,6.367 8.892,10.672 32.432,56.551 23.365,111.196 -8.281,164.341 -18.938,31.804 -45.375,56.238 -77.693,74.272 -4.34,2.42 -8.659,5.039 -13.907,5.001 z"
   id="path30" />
		<path
   fill-rule="evenodd"
   clip-rule="evenodd"
   fill="#fcce2e"
   d="m 2277.689,-265.12 c 29.816,0.119 59.635,0.135 89.449,0.401 14.863,0.133 28.844,3.187 40.579,13.304 5.354,4.615 9.667,9.882 12.837,16.146 3.373,6.461 6.662,12.938 3.826,20.558 -13.004,4.72 -26.82,4.315 -40.264,5.864 -79.543,9.165 -158.271,22.813 -236.33,40.623 -89.791,20.487 -178.011,46.395 -265.09,76.222 -58.347,19.984 -115.733,42.552 -172.756,66.036 -3.391,1.396 -6.665,3.112 -10.485,2.881 -4.524,-0.504 -8.059,-3.093 -11.336,-5.889 -41.008,-34.979 -84.532,-66.793 -126.495,-100.574 -20.063,-16.152 -31.017,-36.021 -30.072,-61.97 0.125,-3.432 -1.063,-7.534 3.213,-9.688 8.982,-35.917 42.547,-61.081 73.652,-63.042 14.506,-0.125 29.031,1.079 43.514,-0.646 0.718,0.003 1.436,0.005 2.153,0.008 2.17,1.178 4.536,0.79 6.831,0.791 58.715,0.019 117.43,0.018 176.145,0.001 2.3,-0.001 4.659,0.356 6.852,-0.73 5.137,-2.589 7.137,-7.813 9.909,-12.244 35.642,-56.956 71.002,-114.088 106.809,-170.939 10.816,-17.175 22.958,-33.434 39.313,-46.05 21.547,-16.621 45.482,-22.889 72.213,-16.992 14.987,3.306 26.896,11.115 34.117,25.125 5.378,6.779 6.953,14.979 8.475,23.144 6.59,35.336 9.512,71.157 13.984,106.772 3.146,25.061 6.319,50.119 8.658,75.28 1.111,11.948 2.25,11.964 14.238,12.908 37.247,2.935 74.456,-0.826 111.68,-0.11 4.956,0.096 10.061,-0.544 14.381,2.81 z"
   id="path32" />
		<path
   fill-rule="evenodd"
   clip-rule="evenodd"
   fill="#f9ffab"
   d="m -479.633,758.169 c -11.57,18.188 -25.757,33.807 -44.372,45.052 -28.794,17.394 -59.311,24.593 -92.561,15.619 -0.954,-0.258 -1.976,-0.264 -2.966,-0.387 -3.572,-0.354 -7.193,-0.454 -10.544,-2.009 -28.195,-14.571 -42.775,-44.454 -36.189,-75.055 8.554,-39.738 19.257,-78.96 28.96,-118.423 0.797,-3.241 1.714,-6.467 4.39,-8.79 82.604,-42.211 167.205,-79.685 255.889,-107.443 32.76,-10.255 65.806,-19.51 98.93,-28.498 3.533,-0.958 7.093,-1.903 10.808,-1.714 0.984,0.048 2.129,-0.027 2.908,0.501 6.068,4.113 10.995,4.84 13.786,-3.709 0.602,-1.842 3.053,-2.405 5.06,-2.874 48.302,-8.975 96.514,-18.495 145.422,-23.353 15.664,-1.555 31.437,-5.831 47.357,-1.486 5.025,4.587 2.295,9.925 1.125,14.881 -8.02,33.983 -17.395,67.623 -25.807,101.51 -14.021,56.482 -28.221,112.92 -42.309,169.386 -4.244,17.009 -11.624,32.521 -21.854,46.688 -3.091,4.28 -6.078,8.849 -11.771,10.201 -12.372,10.636 -25.399,20.239 -40.457,26.881 -33.067,14.586 -65.915,16.713 -98.542,-1.24 -10.608,-3.86 -16.807,-12.931 -23.444,-20.997 -35.778,-43.474 -71.258,-87.194 -106.614,-131.015 -4.601,-5.702 -9.25,-11.376 -14.122,-16.847 -1.909,-2.145 -3.84,-5.494 -7.197,-4.419 -2.712,0.868 -2.635,4.378 -3.284,6.897 -7.646,29.682 -13.615,59.795 -22.855,89.063 -2.387,7.556 -3.97,15.532 -9.747,21.58 z"
   id="path34" />
		<path
   fill-rule="evenodd"
   clip-rule="evenodd"
   fill="#fcce2e"
   d="m 1499.605,-231.117 c 2.633,1.084 3.336,3.764 4.802,5.812 10.433,13.277 10.978,28.737 9.675,44.538 -0.326,3.962 -1.309,7.877 -2.263,11.752 -22.026,89.477 -44.764,178.774 -67.483,268.075 -0.574,2.258 -1.25,4.488 -2.255,6.592 -4.73,7.4 -12.814,10.402 -19.896,14.478 -60.804,34.99 -119.342,73.426 -176.02,114.735 -3.704,2.699 -7.212,6.063 -12.41,5.501 -5.592,-1.781 -7.927,-6.918 -11.073,-11.084 -36.952,-48.913 -73.494,-98.134 -110.103,-147.305 -2.14,-2.875 -3.698,-6.354 -7.637,-8.396 -3.019,3.771 -3.535,8.454 -4.636,12.794 -7.697,30.357 -15.313,60.736 -22.828,91.14 -2.813,11.382 -7.04,22.203 -12.384,32.625 -21.962,32.969 -52.474,52.944 -91.393,60.153 -19.181,3.553 -37.664,0.006 -55.979,-5.396 -20.207,-12.513 -35.039,-28.883 -39.397,-53.27 -1.877,-10.503 0.581,-20.418 2.464,-30.457 1.158,-6.174 2.973,-12.224 3.805,-18.474 2.657,-9.503 5.111,-19.06 7.245,-28.702 8.341,-32.047 16.796,-64.061 24.615,-96.237 1.238,-5.097 1.959,-10.502 6.159,-14.372 11.08,-5.227 23.275,-4.957 35.002,-6.784 97.163,-15.139 190.93,-41.758 280.87,-81.744 10.58,-4.704 20.515,-11.049 31.99,-13.669 6.974,0.633 9.127,7.188 13.377,11.127 3.861,3.579 5.744,3.517 7.315,-1.893 2.386,-8.209 2.473,-17.204 7.982,-24.402 24.183,-14.503 49.195,-27.539 72.799,-43.112 35.823,-23.636 69.664,-49.775 102.819,-76.938 7.714,-6.32 13.634,-15.695 24.838,-17.087 z"
   id="path36" />
		<path
   fill-rule="evenodd"
   clip-rule="evenodd"
   fill="#fcce2e"
   d="m 238.174,-118.795 c 4.285,-5.414 8.57,-10.827 12.854,-16.241 6.146,0.37 10.062,4.942 14.53,8.151 36.063,25.889 74.727,47.36 114.01,67.821 8.465,4.409 18.514,5.909 25.214,13.597 1.546,4.508 -1.359,7.67 -3.558,10.875 -38.557,56.213 -77.139,112.409 -115.916,168.47 -17.97,25.979 -35.649,52.158 -53.641,78.124 -8.005,11.553 -16.934,22.153 -27.426,31.483 C 159.459,276.429 110.507,286.02 56.953,269.757 52.811,268.5 48.734,267.049 44.692,265.514 32.324,257.105 21.895,246.74 13.483,234.34 8.457,220.079 5.723,205.294 3.377,190.412 -2.612,148.528 -11.118,107.086 -18.322,65.419 -21.839,45.077 -25.268,24.715 -29.355,4.478 c -1.6,-14.105 -5.414,-27.824 -7.432,-41.864 -4.083,-29.554 -9.977,-58.8 -15.421,-88.101 -4.348,-23.393 0.334,-44.672 10.35,-65.455 1.33,-2.762 2.994,-5.143 5.736,-6.64 11.886,-17.967 26.522,-33.098 45.19,-44.142 16.246,-9.61 33.749,-16.19 52.52,-16.842 29.322,-1.018 52.83,10.675 68.771,36.012 5.287,8.029 6.375,17.41 8.327,26.467 11.917,55.271 21.396,111.023 32.634,167.213 3.813,-1.579 5.313,-4.99 7.354,-7.659 18.192,-23.798 34.002,-49.268 51.479,-73.572 2.322,-3.231 4.248,-6.808 8.021,-8.69 z"
   id="path38" />
		<path
   fill-rule="evenodd"
   clip-rule="evenodd"
   fill="#f9ffab"
   d="m -1199.996,1192.537 c 8.322,-21.128 19.465,-40.854 30.691,-60.484 18.01,-31.493 37.141,-62.329 57.988,-92.03 22.168,-31.585 45.607,-62.196 70.485,-91.748 29.403,-34.927 60.119,-68.607 93.06,-100.185 36.039,-34.547 73.291,-67.72 112.955,-98.166 28.784,-22.095 57.938,-43.629 88.154,-63.709 23.287,-15.477 47.231,-29.895 71.594,-43.612 2.88,-1.622 6.021,-2.778 9.042,-4.151 3.288,3.647 1.419,7.629 0.489,11.369 -23.298,93.765 -46.439,187.571 -70.458,281.152 -9.651,37.607 -30.847,69.17 -56.9,97.438 -30.112,32.674 -66.272,57.581 -104.447,79.784 -2.93,1.703 -5.93,3.024 -9.4,2.897 -4.412,0.611 -8.009,3.159 -11.836,5.1 -61.602,31.233 -126.565,52.316 -194.382,65.036 -25.877,4.853 -51.937,8.179 -78.063,11.138 -2.959,0.335 -5.98,0.127 -8.972,0.171 z"
   id="path40" />
		<path
   fill-rule="evenodd"
   clip-rule="evenodd"
   fill="#f9ffab"
   d="m 504.014,-197.66 c 6.255,-6.884 11.403,-14.663 18.107,-21.223 26.095,-25.53 57.035,-40.25 93.703,-40.617 54.252,-0.543 108.513,-0.152 162.77,-0.115 35.949,0.025 71.913,0.795 107.842,-0.033 25.569,-0.59 45.075,9.101 59.94,29.332 10.355,15.223 10.401,32.366 6.615,48.998 -10.343,45.431 -39.097,74.354 -83.173,88.526 -5.293,0.974 -10.637,0.588 -15.958,0.755 -54.557,1.716 -109.112,-0.426 -163.668,-0.016 -6.674,0.05 -13.318,0.188 -19.808,2.055 -3.62,1.041 -5.942,3.244 -5.82,7.073 0.156,4.894 4.268,4.277 7.407,4.623 2.974,0.326 5.991,0.126 8.988,0.127 53.965,0.012 107.93,-0.147 161.894,0.068 29.206,0.117 49.949,13.969 62.717,40.076 4.749,19.768 5.028,39.314 -3.089,58.404 -1.548,3.642 -2.863,7.464 -6.466,9.762 -16.382,3.032 -33.065,2.896 -49.574,3.455 -30.254,1.023 -60.612,1.371 -90.846,0.083 -84.68,-3.608 -168.371,-14.201 -249.708,-39.321 -16.812,-5.192 -34.11,-9.08 -49.589,-17.961 -3.696,-4.102 -2.263,-8.741 -1.153,-13.216 10.308,-41.586 20.326,-83.25 31.387,-124.641 3.471,-12.986 6.739,-26.516 17.482,-36.194 z"
   id="path42" />
		<path
   fill-rule="evenodd"
   clip-rule="evenodd"
   fill="#a38acf"
   d="m 2423.566,-215.744 c -1.006,-6.507 -2.012,-13.013 -3.015,-19.522 16.954,13.53 31.853,29.263 47.216,44.466 34.792,34.43 69.215,69.232 103.914,103.755 7.738,7.698 10.213,17.003 9.289,27.324 -2.275,25.443 -15.148,44.968 -34.732,60.546 -7.576,6.026 -15.883,10.968 -24.293,15.705 -63.498,35.766 -127.024,71.482 -190.541,107.217 -7.737,4.354 -7.536,4.338 -6.505,13.192 3.114,26.741 5.967,53.514 9.099,80.254 3.016,25.74 6.252,51.455 9.385,77.179 -5.371,1.142 -10.553,-1.068 -15.8,-0.978 -30.999,0.537 -61.667,2.85 -89.214,19.341 -3.971,2.378 -7.775,5.031 -11.658,7.558 -12.266,-6.334 -21.42,-16.682 -32.048,-25.114 -9.354,-7.422 -18.271,-15.427 -27.464,-23.077 -3.253,-2.707 -6.891,-5.516 -6.103,-10.689 13.843,-15.092 23.115,-32.283 25.638,-52.962 1.843,-15.109 -0.569,-29.947 -2.131,-44.778 -6.238,-59.243 -14.055,-118.308 -20.549,-177.524 -0.783,-7.137 2.135,-11.037 8.044,-14.332 66.314,-36.981 132.431,-74.316 198.334,-112.025 27.084,-15.497 45.778,-37.241 50.827,-68.986 0.376,-2.355 1.199,-4.487 2.307,-6.55 z"
   id="path44" />
		<path
   fill-rule="evenodd"
   clip-rule="evenodd"
   fill="#a38acf"
   d="m -906.743,1111.092 c 16.725,-10.847 34.159,-20.558 50.513,-32.011 36.831,-25.793 69.384,-55.781 93.408,-94.233 13.878,-22.213 22.791,-46.315 28.99,-71.769 14.538,-59.696 29.926,-119.185 44.898,-178.775 7.608,-30.276 15.077,-60.588 22.552,-90.897 0.391,-1.583 0.249,-3.297 0.355,-4.953 5.161,-12.996 7.266,-26.83 10.95,-40.229 3.951,-14.372 6.976,-28.999 10.404,-43.515 -2.553,-3.796 -1.169,-7.723 -0.253,-11.56 2.549,-10.677 5.33,-21.298 7.93,-31.962 11.961,-49.08 9.179,-96.342 -17.391,-140.668 -1.364,-2.274 -2.697,-4.609 -2.751,-7.383 4.646,-5.997 7.369,-0.159 9.722,2.146 14.035,13.758 28.323,27.285 41.549,41.836 7.118,7.832 16.722,13.362 21.61,23.271 1.059,4.781 -0.598,9.237 -1.728,13.722 -6.505,25.801 -12.813,51.65 -19.293,77.457 -7.432,27.941 -15.155,55.806 -22.059,83.886 -0.885,3.601 -2.137,6.981 -4.533,9.863 -5.194,13.343 -7.561,27.456 -11.04,41.253 -7.466,29.599 -15.298,59.114 -21.478,89.025 -3.604,17.442 1.583,32.795 11.12,47.097 6.396,9.593 14.896,16.901 24.985,22.405 2.78,1.28 5.105,3.017 6.11,6.08 20.171,20.825 42.496,39.333 63.617,59.136 6.068,5.689 12.111,11.462 18.654,16.571 5.523,4.313 6.75,8.901 4.982,15.643 -8.945,34.102 -17.47,68.312 -26.179,102.475 -5.175,20.3 -10.551,40.549 -15.6,60.88 -7.363,29.655 -22.193,55.51 -40.736,79.313 -33.782,43.363 -77.751,74.2 -125.173,100.723 -4.224,2.362 -6.423,0.918 -9.418,-1.832 -30.163,-27.689 -60.497,-55.193 -90.674,-82.867 -19.139,-17.551 -38.106,-35.288 -57.113,-52.982 -2.422,-2.258 -4.625,-4.758 -6.93,-7.146 z"
   id="path46" />
		<path
   fill-rule="evenodd"
   clip-rule="evenodd"
   fill="#f9ffab"
   d="m 473.751,779.361 c -4.575,2.937 -7.142,7.828 -11.144,11.362 -26.109,23.055 -56.643,35.392 -91.209,38.521 -17.768,1.609 -35.148,0.293 -52.408,-4.188 -14.498,-3.763 -26.65,-11.777 -38.643,-20.207 -12.39,-6.653 -16.322,-18.867 -19.08,-31.103 -5.339,-23.693 -8.858,-47.759 -13.029,-71.688 -13.713,-78.675 -27.802,-157.283 -41.588,-235.945 -0.908,-5.187 -2.525,-10.48 0.723,-15.511 3.776,-2.988 8.139,-2.492 12.445,-1.96 51.993,6.413 103.388,16.051 154.064,29.314 13.812,3.614 28.322,4.688 41.379,11.072 6.156,6.294 4.898,14.884 6.771,22.492 1.186,4.812 1.366,9.855 2.981,15.391 5.258,-6.211 9.534,-12.468 13.8,-18.746 2.396,-3.527 4.363,-7.626 9.21,-8.59 14.083,2.795 27.089,8.802 40.408,13.795 39.498,14.806 78.425,31.007 116.521,49.147 4.152,1.977 8.644,3.583 11.57,7.512 2.114,4.908 -1.219,8.24 -3.605,11.697 -43.603,63.169 -87.098,126.412 -130.903,189.441 -2.233,3.217 -3.891,7.098 -8.263,8.194 z"
   id="path48" />
		<path
   fill-rule="evenodd"
   clip-rule="evenodd"
   fill="#fffdd8"
   d="m 1078.052,794.401 c -6.491,5.167 -12.679,10.787 -19.534,15.415 -18.746,12.657 -39.55,17.89 -62.234,17.813 -80.527,-0.271 -161.057,0.066 -241.585,-0.021 -14.271,-0.016 -28.627,0.146 -42.666,-3.295 -6.677,-6.198 -4.04,-12.425 -0.258,-18.855 25.166,-42.782 51.341,-84.909 80.675,-124.999 34.35,-51.654 73.933,-99.236 114.23,-146.239 14.718,-17.166 30.236,-33.642 44.782,-50.97 2.136,-2.545 4.488,-4.943 7.773,-6.111 30.139,-2.962 60.353,-3.813 90.587,-2.59 15.928,0.644 31.867,0.868 47.795,1.448 27.212,0.992 52.93,20.055 60.742,46.393 5.617,54.879 -25.899,97.862 -73.847,117.46 -10.944,4.555 -22.366,6.176 -34.165,6.159 -54.609,-0.079 -109.219,-0.044 -163.828,-0.024 -3.989,10e-4 -7.984,-0.145 -11.944,0.659 -4.427,0.897 -5.958,4.138 -6.083,8.005 -0.155,4.822 3.832,4.686 7.086,5.006 3.313,0.326 6.654,0.15 9.983,0.15 53.61,0.013 107.221,0.052 160.831,-0.016 22.584,-0.028 40.27,9.764 54.744,26.387 17.591,37.139 10.998,70.838 -14.55,101.842 -2.342,2.841 -4.574,5.743 -8.534,6.383 z"
   id="path50" />
		<path
   fill-rule="evenodd"
   clip-rule="evenodd"
   fill="#f9ffab"
   d="m 90.423,758.073 c -7.343,11.467 -14.626,22.958 -24.603,32.449 -26.754,25.451 -57.709,39.771 -95.457,36.646 -7.711,-0.638 -14.907,-3.197 -22.33,-4.923 -2.175,0.797 -4.304,0.578 -6.412,-0.265 -28.418,-16.585 -43.41,-48.743 -36.175,-80.789 10.109,-44.781 21.981,-89.147 33.063,-133.699 13.41,-53.917 26.924,-107.808 40.412,-161.705 0.887,-3.545 1.532,-7.188 3.284,-10.444 1.194,-2.221 2.761,-3.895 5.479,-1.785 3.791,4.129 8.818,4.163 13.831,4.179 16.603,0.054 33.205,0.007 49.808,0.024 37.499,0.041 74.932,1.891 112.351,4.123 2.327,0.139 4.635,0.383 6.799,1.311 5.431,4.027 2.431,9.145 1.335,13.651 -6.597,27.151 -13.481,54.232 -20.235,81.346 -15.519,62.292 -31.206,124.541 -46.729,186.831 -2.095,8.403 -5.069,16.534 -7.932,24.694 -1.221,3.475 -2.603,6.911 -6.489,8.356 z"
   id="path52" />
		<path
   fill-rule="evenodd"
   clip-rule="evenodd"
   fill="#a38acf"
   d="m 1439.529,107.044 c 19.704,-78.382 39.408,-156.764 59.114,-235.146 3.487,-13.874 6.712,-27.822 10.55,-41.599 4.457,-15.997 3.385,-31.586 -2.027,-47.078 -0.985,-2.819 -1.846,-5.682 -2.761,-8.526 7.18,3.193 12.048,9.326 17.952,14.138 4.11,3.351 7.398,7.721 12.405,9.961 -0.383,7.965 -0.956,15.873 0.142,23.893 2.597,18.975 12.453,33.209 27.222,44.805 38.453,30.191 76.76,60.571 115.076,90.938 7.035,5.575 13.841,11.438 20.753,17.17 1.004,6.367 -3.33,10.603 -6.357,15.213 -43.344,66.027 -83.534,134.028 -125.664,200.814 -5.705,9.045 -10.09,18.651 -12.068,29.396 -3.225,17.502 2.169,31.465 15.863,42.438 4.423,3.544 9.361,6.376 14.05,9.55 1.923,1.346 3.752,2.826 5.746,4.077 6.502,5.634 15.92,8.075 19.097,17.364 -1.357,1.793 -3.321,2.038 -5.351,2.053 -28.919,0.204 -57.839,0.866 -86.753,-0.288 -16.205,-9.479 -29.364,-22.851 -43.775,-34.589 -18.566,-15.122 -36.922,-30.518 -55.182,-46.021 -3.298,-2.801 -7.074,-5.173 -7.266,-10.173 10.113,-29.381 17.25,-59.58 24.678,-89.695 0.828,-3.357 3.255,-5.689 4.556,-8.695 z"
   id="path54" />
		<path
   fill-rule="evenodd"
   clip-rule="evenodd"
   fill="#f9ffab"
   d="m 1271.922,-77.459 c -24.735,11.395 -49.601,22.464 -74.934,32.509 -52.873,20.964 -107.089,37.467 -162.595,49.753 -36.581,8.098 -73.401,14.877 -110.657,19.093 -3.436,-4.258 -1.391,-8.749 -0.492,-13.149 1.77,-8.667 4.054,-17.216 6.132,-25.81 1.472,-7.245 3.596,-14.315 5.739,-21.383 9.938,-40.454 19.804,-80.929 30.375,-121.217 3.763,-14.341 6.914,-29.322 17.939,-40.621 10.252,-13.582 21.338,-26.313 35.271,-36.371 18.468,-13.329 38.884,-21.901 61.535,-23.896 30.136,-2.654 55.304,8.577 76.262,29.854 4.192,4.257 7.948,8.943 11.906,13.432 3.6,2.984 6.71,6.43 9.489,10.176 28.913,38.98 59.59,76.605 88.66,115.464 2.663,3.556 6.873,6.67 5.37,12.166 z"
   id="path56" />
		<path
   fill-rule="evenodd"
   clip-rule="evenodd"
   fill="#a38acf"
   d="m -962.092,-3.063 c 0.648,3.757 -0.717,7.203 -1.826,10.631 -4.156,12.849 -5.626,26.406 -10.383,39.09 -20.297,20.152 -44.54,34.002 -73.097,34.495 -59.164,1.021 -118.317,3.716 -177.524,2.632 -10.694,-0.196 -19.506,-3.278 -27.145,-10.359 -45.583,-42.256 -91.655,-83.981 -137.29,-126.17 -1.562,-2.646 -3.767,-4.661 -6.325,-6.322 -0.425,-0.513 -0.875,-1.006 -1.271,-1.54 -1.367,-1.84 -3.712,-3.649 -2.736,-6.061 1.271,-3.146 4.589,-2.021 7.078,-2.024 42.944,-0.063 85.888,-0.04 128.831,-0.047 15.313,-0.002 30.627,-0.094 45.939,-0.035 26.795,0.103 49.751,-9.981 70.693,-25.956 13.409,-10.228 23.607,-23.28 33.737,-36.464 16.429,13.558 32.856,27.113 49.284,40.669 7.506,4.964 13.666,11.715 21.548,16.181 22.25,18.158 43.805,37.135 65.481,55.958 5.358,4.651 12.63,7.673 15.006,15.322 z"
   id="path58" />
		<path
   fill-rule="evenodd"
   clip-rule="evenodd"
   fill="#a38acf"
   d="m 473.751,779.361 c 23.464,-33.955 46.979,-67.875 70.377,-101.876 20.574,-29.898 41.093,-59.836 61.446,-89.884 3.697,-5.456 8.781,-10.084 10.625,-16.729 -0.465,-4.127 2.453,-6.697 4.448,-9.697 28.73,-43.215 58.513,-85.713 87.888,-128.485 18.81,-27.389 25.858,-56.478 16.604,-88.872 -0.639,-2.234 -1.191,-4.509 -1.084,-6.88 0.238,-2.158 0.941,-4.021 3.156,-4.906 12.551,4.858 22.846,12.477 29.684,24.331 -30.259,80.027 -44.389,164.44 -67.035,246.536 -0.709,2.569 -1.184,5.198 -1.927,7.759 -11.286,41.021 -22.558,82.11 -30.147,123.96 -5.47,30.157 3.236,56.611 28.467,76.095 2.344,1.811 4.957,3.428 5.979,6.482 0.523,0.847 0.931,1.799 1.588,2.524 8.801,9.72 8.764,9.68 1.619,19.97 -17.459,25.142 -34.855,50.327 -52.314,75.469 -4.603,6.629 -4.766,6.715 -11.127,1.632 -24.183,-19.324 -47.408,-39.783 -70.693,-60.163 -29.291,-25.635 -58.379,-51.501 -87.554,-77.266 z"
   id="path60" />
		<path
   fill-rule="evenodd"
   clip-rule="evenodd"
   fill="#a38acf"
   d="m 504.014,-197.66 c 0.051,4.362 -3.244,7.199 -5.064,10.654 -8.489,16.114 -11.908,33.813 -16.328,51.181 -8.769,34.45 -17.281,68.966 -25.851,103.467 -0.557,2.243 -0.697,4.59 -1.031,6.888 0.599,10.871 -3.185,21.001 -5.706,31.263 -12.643,51.448 -26.138,102.684 -39.023,154.072 -8.761,34.935 -6.609,67.438 19.105,95.336 1.699,3.731 -0.689,6.374 -2.602,9.016 -13.842,19.12 -27.136,38.625 -40.771,57.891 -1.889,2.668 -3.541,5.785 -7.518,5.844 -3.142,-0.499 -5.406,-2.5 -7.456,-4.658 -23.007,-24.227 -51.063,-26.773 -81.562,-19.199 -7.081,1.758 -13.539,5.454 -20.826,6.507 -10.75,-2.904 -16.523,-12.151 -23.215,-19.603 -10.691,-11.906 -22.041,-23.126 -33.024,-34.721 -4.061,-4.287 -8.505,-8.502 -9.809,-14.71 18.06,-16.646 30.637,-37.519 44.387,-57.494 49.069,-71.287 98.183,-142.544 147.21,-213.859 3.371,-4.904 7.359,-9.463 9.486,-15.162 -0.09,-4.39 2.896,-7.286 5.141,-10.53 16.658,-24.075 33.777,-47.836 49.78,-72.358 17.575,-26.932 21.843,-55.855 12.509,-86.757 -1.063,-3.516 -4.364,-6.999 -1.245,-11.065 9.306,5.318 16.538,13.141 24.411,20.192 2.959,2.647 5.999,5.206 9.002,7.805 z"
   id="path62" />
		<path
   fill-rule="evenodd"
   clip-rule="evenodd"
   fill="#a38acf"
   d="m 90.423,758.073 c 8.466,-17.497 12.246,-36.469 16.95,-55.099 21.363,-84.611 42.444,-169.295 63.602,-253.959 0.314,-1.26 0.289,-2.604 0.422,-3.909 -2.586,-4.586 -0.516,-9.044 0.494,-13.47 4.035,-17.695 9.666,-34.969 12.189,-53.092 1.451,-10.42 -0.598,-20.386 -0.559,-30.563 0.35,-2.227 0.981,-4.304 3.126,-5.511 12.355,5.868 19.002,16.812 25.095,28.268 0.307,2.708 -0.426,5.244 -1.32,7.735 -7.025,19.569 -6.59,39.46 -2.723,59.537 0.799,4.146 2.229,8.365 0.224,12.599 -0.445,11.105 2.792,21.716 4.637,32.48 7.683,44.821 15.732,89.58 23.674,134.357 7.015,39.547 14.07,79.088 21.093,118.634 1.451,8.168 3.344,16.299 4.146,24.533 1.638,16.823 8.213,31.355 18.874,44.234 -8.61,30.946 -14.472,62.656 -25.299,93.91 -11.961,-8.333 -22.125,-17.392 -32.376,-26.276 -41.543,-36.008 -82.909,-72.22 -124.37,-108.323 -2.499,-2.174 -5.247,-4.063 -7.879,-6.085 z"
   id="path64" />
		<path
   fill-rule="evenodd"
   clip-rule="evenodd"
   fill="#a38acf"
   d="m -14.667,433.011 c -10.014,39.593 -20.067,79.175 -30.032,118.779 -15.078,59.931 -29.344,120.078 -45.402,179.743 -10.572,39.281 5.933,72.136 33.492,89.257 2.029,0.861 3.508,2.314 4.554,4.233 17.4,15.968 34.87,31.861 52.173,47.934 9.02,8.378 17.682,17.138 26.64,25.582 2.883,2.718 3.452,5.018 1.003,8.468 -2.875,4.053 -4.937,8.672 -7.633,12.863 -6.849,10.646 -10.123,11.003 -19.287,2.906 -50.123,-44.285 -101.638,-86.978 -151.079,-132.043 -0.98,-0.894 -2.092,-1.645 -3.138,-2.465 19.402,-20.52 28.437,-45.808 34.993,-72.701 16.125,-66.144 33.094,-132.08 49.678,-198.111 5.177,-20.611 10.165,-41.271 15.354,-61.879 0.736,-2.924 1.594,-5.764 1.282,-8.811 -1.877,-4.38 0.006,-8.509 0.981,-12.638 4.201,-17.771 10.268,-35.078 13.012,-53.225 0.899,-5.945 1.382,-11.855 1.384,-17.849 0.011,-31.869 -17.639,-54.814 -48.64,-63.169 -9.004,-2.427 -18.326,-3.161 -27.406,-5.17 -12.852,-7.088 -22.563,-18.163 -34.051,-26.999 -1.558,-1.198 -2.308,-3.213 -1.733,-5.381 1.982,-4.147 6.02,-6.02 9.487,-8.513 26.884,-19.332 43.979,-44.534 47.251,-78.176 0.785,-8.067 -0.775,-15.813 -2.269,-23.6 -0.677,-3.526 -2.617,-6.901 -0.994,-10.632 3.301,-3.531 6.245,-1.163 8.605,1.002 33.26,30.512 68.281,59.058 100.81,90.382 0.71,0.684 1.143,1.627 1.631,2.496 8.466,9.975 18.27,18.592 27.838,27.448 12.999,10.507 22.199,24.566 33.898,36.292 1.186,1.188 1.459,2.944 1.182,4.681 -1.774,4.25 -6.049,4.806 -9.568,6.498 -31.187,14.997 -54.551,37.687 -67.076,70.272 -5.229,13.606 -8.418,27.969 -12.121,42.108 -0.966,3.691 -0.693,8.126 -4.819,10.418 z"
   id="path66" />
		<path
   fill-rule="evenodd"
   clip-rule="evenodd"
   fill="#f9ffab"
   d="m 470.601,-225.66 c 3.472,10.336 6.813,20.587 7.995,31.63 2.422,22.641 -1.88,43.973 -13.984,62.721 -18.683,28.938 -39.008,56.816 -58.66,85.128 -0.359,0.517 -1.019,0.825 -1.537,1.231 -45.831,-20.667 -89.601,-45.038 -131.07,-73.467 -7.637,-5.235 -15.763,-9.896 -22.313,-16.622 18.681,-27.551 35.493,-56.633 57.424,-81.64 27.192,-31.006 61.827,-48.149 104.359,-44.24 18.101,1.664 34.027,9.001 46.712,22.418 3.877,4.103 7.392,8.551 11.074,12.841 z"
   id="path68" />
		<path
   fill-rule="evenodd"
   clip-rule="evenodd"
   fill="#a38acf"
   d="m 1970.482,808.456 c 12.763,-7.718 26.067,-14.516 37.936,-23.727 36.935,-28.665 62.389,-65.088 74.531,-110.361 9.834,-36.672 5.732,-71.808 -13.238,-104.948 -1.003,-1.752 -2.055,-3.429 -1.851,-5.556 3.683,-0.476 6.435,1.538 8.868,3.751 13.234,12.04 26.348,24.217 40.027,35.758 2.355,1.987 3.659,4.672 4.923,7.385 -1.192,12.929 -5.669,25.112 -8.632,37.634 -6.479,27.386 -14.053,54.533 -19.8,82.066 -6.867,32.893 3.965,66.367 32.521,84.564 0.844,0.513 1.538,1.211 2.287,1.841 l -0.139,-0.035 c 2.4,1.674 4.846,3.303 6.05,6.152 18.796,17.412 37.603,34.813 56.382,52.243 5.123,4.755 10.106,9.659 15.264,14.375 2.689,2.458 3.055,4.651 0.662,7.664 -17.651,22.239 -39.318,39.563 -64.208,53.034 -4.12,2.23 -6.88,0.229 -9.757,-2.3 -8.002,-7.03 -16.02,-14.042 -24.09,-20.992 -45.902,-39.527 -91.822,-79.034 -137.736,-118.548 z"
   id="path70" />
		<path
   fill-rule="evenodd"
   clip-rule="evenodd"
   fill="#a38acf"
   d="m 2563.056,443.779 c 17.401,-12.123 31.623,-26.945 40.938,-46.328 10.326,-21.486 13.33,-43.426 6.189,-66.469 -0.869,-2.802 -2.541,-5.459 -2.209,-8.592 19.44,15.142 37.039,32.378 55.275,48.884 28.374,25.679 55.863,52.387 85.037,77.115 30.561,25.904 33.829,57.599 20.774,89.839 -8.192,20.23 -22.409,35.959 -38.946,49.827 -3.523,2.954 -6.037,3.01 -9.373,-0.15 -7.971,-7.554 -16.218,-14.813 -24.316,-22.233 -43.189,-39.563 -86.365,-79.14 -129.556,-118.702 -1.22,-1.12 -2.539,-2.131 -3.813,-3.191 z"
   id="path72" />
		<path
   fill-rule="evenodd"
   clip-rule="evenodd"
   fill="#a38acf"
   d="m 2537.652,812.97 c 8.747,-7.496 18.438,-13.821 26.218,-22.535 10.073,-11.284 17.888,-23.833 22.521,-38.165 5.642,-17.455 6.049,-35.045 -0.252,-52.546 -0.877,-2.439 -2.455,-4.769 -1.88,-7.594 13.976,10.789 26.891,22.817 39.962,34.643 34.313,31.042 68.466,62.259 102.611,93.483 4.169,3.812 8.152,7.885 11.805,12.191 17.016,20.065 18.031,42.965 10.529,66.738 -7.137,22.612 -22.146,39.877 -39.751,55.188 -4.608,4.008 -7.159,0.746 -10.11,-1.76 -18.017,-15.29 -36.063,-30.547 -53.966,-45.97 -34.297,-29.545 -68.509,-59.188 -102.736,-88.813 -1.746,-1.508 -3.305,-3.235 -4.951,-4.86 z"
   id="path74" />
		<path
   fill-rule="evenodd"
   clip-rule="evenodd"
   fill="#a38acf"
   d="m 2557.988,626.314 c 1.677,-1.585 3.233,-3.325 5.049,-4.731 21.236,-16.452 35.689,-37.36 41.537,-63.769 2.998,-13.543 2.359,-27.022 -1.93,-40.313 -1.006,-3.118 -2.883,-6.057 -2.541,-9.555 9.744,6.5 17.861,14.939 26.463,22.748 34.533,31.348 68.765,63.026 103.146,94.541 5.401,4.951 10.954,9.74 16.521,14.507 20.35,17.423 25.682,40.108 21.02,65.156 -5.041,27.082 -19.963,48.341 -42.797,63.857 -7.761,5.274 -7.834,5.125 -15.005,-1.484 -50.713,-46.742 -101.623,-93.273 -151.463,-140.957 z"
   id="path76" />
		<path
   fill-rule="evenodd"
   clip-rule="evenodd"
   fill="#a38acf"
   d="m 1761.604,398.484 c 0.574,3.648 -1.694,6.331 -3.225,9.222 -15.018,28.385 -21.691,58.484 -18.344,90.546 2.348,22.494 11.448,42.189 25.67,59.626 8.052,9.872 17.581,18.074 28.214,25.048 26.996,17.705 53.961,35.46 80.979,53.131 2.809,1.837 5.561,3.657 7.644,6.33 2.568,3.297 3.841,6.979 3.23,11.185 -1.998,13.761 -18.56,23.345 -31.144,17.521 -12.383,-5.73 -24.46,-12.127 -36.6,-18.371 -13.616,-7.003 -27.315,-13.867 -40.688,-21.313 -30.748,-17.121 -58.875,-10.049 -85.736,8.854 -11.572,8.145 -20.854,18.522 -27.907,30.854 -1.147,2.008 -2.707,3.78 -4.076,5.658 -13.403,-9.768 -25.693,-20.818 -37.536,-32.395 -3.07,-3.001 -6.125,-6.054 -9.936,-8.174 -2.711,-15.238 -0.789,-28.347 15.9,-34.685 34.303,-24.898 61.021,-56.171 78.965,-94.666 11.929,-25.592 18.928,-52.52 18.868,-80.852 -0.054,-25.769 -7.64,-49.715 -19.969,-72.212 -1.588,-2.898 -3.874,-5.445 -4.199,-8.93 6.901,-1.076 9.227,5.282 13.328,8.508 13.986,10.998 26.074,24.142 39.502,35.796 2.945,2.556 6.032,5.215 7.06,9.319 z"
   id="path78" />
		<path
   fill-rule="evenodd"
   clip-rule="evenodd"
   fill="#a38acf"
   d="m -479.633,758.169 c 7.909,-23.279 14.809,-46.844 20.381,-70.801 3.46,-14.877 7.183,-29.694 10.924,-44.504 2.43,-9.623 3.966,-10.178 10.824,-2.568 8.674,9.623 16.792,19.758 24.97,29.818 27.473,33.797 54.894,67.638 82.277,101.508 11.917,14.74 23.787,29.511 37.887,42.286 -4.598,11.104 -6.265,23.005 -9.313,34.528 -4.238,16.024 -7.844,32.219 -13.311,48.274 -4.529,-0.547 -7.105,-3.858 -10.06,-6.248 -35.439,-28.67 -69.366,-59.103 -103.622,-89.152 -15.754,-13.819 -31.65,-27.476 -47.519,-41.164 -0.983,-0.847 -2.284,-1.326 -3.438,-1.977 z"
   id="path80" />
		<path
   fill-rule="evenodd"
   clip-rule="evenodd"
   fill="#a38acf"
   d="m 2277.689,-265.12 c -20.588,0.336 -41.176,0.711 -61.765,1 -23.849,0.334 -47.694,0.19 -71.533,-0.627 -7.587,-0.261 -7.692,-0.296 -8.543,-7.488 -3.352,-28.328 -6.354,-56.701 -10.008,-84.99 -4.501,-34.86 -7.138,-69.973 -13.72,-104.551 -1.547,-8.123 -3.879,-16.097 -5.849,-24.144 4.157,1.592 7.256,4.621 10.317,7.678 42.604,42.558 85.732,84.59 128.604,126.877 17.739,17.498 26.115,37.881 29.003,61.632 1.001,8.225 2.321,16.41 3.494,24.613 z"
   id="path82" />
		<path
   fill-rule="evenodd"
   clip-rule="evenodd"
   fill="#a38acf"
   d="m 1324.814,758.287 c 13.236,-30.386 19.862,-62.668 27.204,-94.746 1.261,-5.506 2.931,-10.939 3.813,-16.501 0.768,-4.835 3.508,-7.313 7.92,-7.404 14.978,-0.311 29.963,-0.337 44.944,-0.323 4.606,0.004 5.118,3.594 5.154,7.056 0.138,13.318 1.952,26.521 2.328,39.849 0.703,24.921 1.684,49.887 4.033,74.692 1.96,20.697 13.542,36.431 30.413,48.3 1.611,1.133 3.214,2.278 4.814,3.417 8.427,10.808 19.122,19.319 29.049,28.611 3.154,2.953 6.07,6.278 9.604,8.687 8.006,5.455 8.531,12.494 5.975,20.964 -2.767,9.166 -5.22,18.411 -9.305,27.45 -5.573,-1.045 -8.921,-4.836 -12.617,-8.051 -48.928,-42.539 -97.855,-85.08 -146.771,-127.634 -2.005,-1.746 -3.886,-3.641 -6.558,-4.367 z"
   id="path84" />
		<path
   fill-rule="evenodd"
   clip-rule="evenodd"
   fill="#f9ffab"
   d="m 692.23,817.195 c -16.316,-7.619 -25.888,-21.193 -32.756,-37.14 -7.553,-17.534 -7.202,-35.642 -3.243,-53.792 8.063,-36.963 17.763,-73.53 27.172,-110.166 0.486,-1.896 0.547,-3.998 2.192,-5.44 4.024,-1.675 7.047,0.882 10.094,2.637 32.163,18.538 62.013,40.603 92.892,61.101 2.458,1.631 5.036,3.314 5.452,6.682 -2.121,6.814 -7.164,11.857 -11.173,17.395 -22.401,30.938 -42.217,63.508 -61.755,96.268 -2.378,3.988 -4.275,8.355 -7.16,11.93 -4.574,5.667 -4.522,11.415 -1.912,17.646 -6.601,-2.375 -13.202,-4.748 -19.803,-7.121 z"
   id="path86" />
		<path
   fill-rule="evenodd"
   clip-rule="evenodd"
   fill="#f9ffab"
   d="m 1499.605,-231.117 c -16.207,11.677 -30.689,25.462 -46.332,37.837 -44.959,35.569 -91.502,68.744 -142.648,94.995 -3.521,1.807 -6.424,4.86 -10.586,5.401 -1.623,-1.65 -1.633,-3.389 -0.281,-5.2 6.56,-17.854 8.912,-36.764 13.808,-55.036 1.546,-5.77 2.827,-11.619 4.582,-17.323 14.636,-47.563 47.136,-75.595 94.998,-86.946 27.521,-6.526 52.663,-1.549 75.532,14.964 4.278,3.089 8.521,6.346 10.927,11.308 z"
   id="path88" />
		<path
   fill-rule="evenodd"
   clip-rule="evenodd"
   fill="#a38acf"
   d="m 1078.052,794.401 c 11.605,-13.72 22.36,-27.879 27.017,-45.769 4.828,-18.556 4.658,-36.663 -3.38,-54.369 -0.807,-1.777 -1.198,-3.742 -1.782,-5.62 1.324,-0.526 2.75,-0.511 3.816,0.306 15.232,11.65 30.379,23.403 42.24,38.733 0.067,8.249 -2.417,16.171 -2.572,24.49 -0.518,27.579 9.803,49.313 32.747,64.865 2.358,1.515 4.583,3.162 5.755,5.845 25.332,24.52 52.596,46.966 77.365,72.09 1.4,1.422 2.763,2.894 4.271,4.195 2.44,2.108 2.462,4.259 0.944,7.021 -5.284,9.619 -10.284,19.412 -17.219,27.998 -4.572,5.661 -4.781,5.64 -9.986,1.018 -42.528,-37.774 -85.017,-75.593 -127.57,-113.339 -10.449,-9.268 -21.093,-18.316 -31.646,-27.464 z"
   id="path90" />
		<path
   fill-rule="evenodd"
   clip-rule="evenodd"
   fill="#a38acf"
   d="m 238.174,-118.795 c -0.648,1.499 -1.063,3.161 -1.979,4.472 -19.436,27.76 -37.571,56.429 -58.275,83.301 -2.007,2.605 -3.832,5.358 -7.23,7.439 -3.847,-9.006 -4.516,-18.287 -6.258,-27.217 -9.528,-48.839 -18.173,-97.851 -28.558,-146.523 -1.797,-8.42 -3.677,-16.822 -5.516,-25.231 5.145,2.583 9.18,6.513 13.21,10.525 30.209,30.081 60.476,60.105 90.747,90.124 1.166,1.156 2.568,2.078 3.859,3.11 z"
   id="path92" />
		<path
   fill-rule="evenodd"
   clip-rule="evenodd"
   fill="#fcce2e"
   d="m -156.04,-95.27 c -0.311,-4.153 1.66,-7.768 2.889,-11.516 15.097,-46.063 30.671,-91.979 41.961,-139.193 0.856,-3.584 1.522,-7.134 1.749,-10.786 13.213,4.119 24.135,11.373 31.786,23.123 1.774,2.379 3.938,4.482 5.148,7.268 10.214,19.788 7.741,39.869 1.008,59.865 -8.37,24.857 -24.778,43.604 -45.753,58.728 -8.966,5.607 -18.502,9.99 -28.641,12.992 -3.371,0.997 -6.915,2.725 -10.147,-0.481 z"
   id="path94" />
		<path
   fill-rule="evenodd"
   clip-rule="evenodd"
   fill="#a38acf"
   d="m 983.43,-198.285 c -0.191,5.262 -4.046,8.93 -6.006,13.42 -8.41,19.271 -12.276,39.809 -17.468,59.974 -7.669,29.791 -15.152,59.63 -22.716,89.448 -9.784,-2.479 -15.197,-10.959 -22.409,-16.824 -13.015,-10.584 -24.696,-22.745 -37.545,-33.58 -2.886,-2.434 -6.627,-4.708 -5.841,-9.548 5.772,-2.449 11.73,-4.539 17.285,-7.408 25.336,-13.09 44.293,-32.354 55.695,-58.694 9.216,-21.286 10.363,-42.952 2.802,-64.985 -0.424,-1.233 -0.578,-2.559 -0.854,-3.837 10.686,6.604 19.332,15.585 28.332,24.159 2.836,2.702 5.813,5.254 8.725,7.875 z"
   id="path96" />
		<path
   fill-rule="evenodd"
   clip-rule="evenodd"
   fill="#a38acf"
   d="m -117.981,-109.821 c 6.4,-6.293 13.813,-11.432 19.953,-18.061 17.082,-18.442 27.405,-39.966 29.627,-65.034 1.042,-11.757 -1.839,-23.111 -5.886,-34.132 -0.461,-1.965 0.324,-2.543 2.166,-1.946 12.001,10.472 24.002,20.944 36.001,31.415 -2.214,5.175 -4.355,10.385 -6.653,15.524 -7.953,17.794 -10.375,36.127 -6.731,55.437 5.298,28.072 10.047,56.248 14.979,84.39 0.283,1.617 0.108,3.315 0.147,4.976 -10.935,-1.762 -17.222,-10.665 -24.683,-17.154 -19.201,-16.702 -37.973,-33.925 -56.656,-51.226 -1.238,-1.146 -2.317,-2.355 -2.264,-4.189 z"
   id="path98" />
		<path
   fill-rule="evenodd"
   clip-rule="evenodd"
   fill="#a38acf"
   d="m -593.388,-93.811 c 23.956,-19.278 41.795,-42.489 47.954,-73.452 4.234,-21.291 1.432,-41.511 -8.13,-60.885 10.218,6.958 18.976,15.59 27.894,24.046 2.887,2.736 6.054,5.177 9.088,7.756 -15.115,26.765 -19.195,57.012 -27.128,86.033 -4.628,16.932 -8.898,33.962 -13.329,50.947 -7.035,-1.544 -10.91,-7.331 -15.416,-12.004 -7.097,-7.358 -15.599,-13.439 -20.933,-22.441 z"
   id="path100" />
		<path
   fill-rule="evenodd"
   clip-rule="evenodd"
   fill="#a38acf"
   d="m 1299.758,-98.083 c 0.094,1.732 0.188,3.465 0.282,5.198 -4.527,10.557 -5.497,22.127 -9.277,33.532 -9.546,-3.054 -12.241,-12.673 -18.839,-18.104 -9.188,-14.687 -20.387,-27.884 -30.928,-41.553 -23.752,-30.797 -47.898,-61.292 -70.701,-92.812 -0.763,-1.055 -1.271,-2.294 -1.895,-3.445 8.85,4.286 15.079,11.833 22.149,18.231 33.97,30.742 67.666,61.787 101.491,92.689 2.442,2.231 5.14,4.182 7.718,6.264 z"
   id="path102" />
		<path
   fill-rule="evenodd"
   clip-rule="evenodd"
   fill="#fbce3b"
   d="m 1843.912,-264.824 c -2.776,2.734 -6.293,1.675 -9.504,1.678 -56.949,0.057 -113.898,0.054 -170.849,-0.01 -3.205,-0.003 -6.732,1.076 -9.476,-1.73 22.646,-0.088 45.29,-0.268 67.935,-0.245 40.631,0.039 81.263,0.198 121.894,0.307 z"
   id="path104" />
		<path
   fill-rule="evenodd"
   clip-rule="evenodd"
   fill="#f77254"
   d="m -1043.981,-73.104 c -7.242,-5.197 -14.502,-10.374 -20.144,-17.422 0.103,-0.937 0.206,-1.874 0.31,-2.812 7.261,6.968 14.872,13.475 23.846,18.196 -0.888,1.565 -2.375,1.95 -4.012,2.038 z"
   id="path106" />
		<path
   fill-rule="evenodd"
   clip-rule="evenodd"
   fill="#f9ce45"
   d="m 1651.932,-264.893 c -0.512,0.4 -1.007,1.127 -1.537,1.153 -14.003,0.697 -28.014,1.697 -41.979,-0.512 14.482,-1.87 29.005,-0.819 43.516,-0.641 z"
   id="path108" />
		<path
   fill-rule="evenodd"
   clip-rule="evenodd"
   fill="#fbca44"
   d="m -1261.951,1194.691 c 0.509,-0.401 0.999,-1.124 1.53,-1.155 12.663,-0.748 25.334,-1.614 37.963,0.438 -13.143,1.604 -26.32,1.01 -39.493,0.717 z"
   id="path110" />
		<path
   fill-rule="evenodd"
   clip-rule="evenodd"
   fill="#fbca44"
   d="m -1297.519,1193.92 c 11.186,-1.243 22.373,-2.552 33.454,0.759 -11.163,0.254 -22.334,0.942 -33.454,-0.759 z"
   id="path112" />
		<path
   fill-rule="evenodd"
   clip-rule="evenodd"
   fill="#f96944"
   d="m -622.17,821.179 c -2.773,-1.285 -4.654,-3.469 -6.108,-6.081 3.352,-0.021 6.228,1.203 8.747,3.356 -0.879,0.909 -1.759,1.817 -2.639,2.725 z"
   id="path114" />
		<path
   fill-rule="evenodd"
   clip-rule="evenodd"
   fill="#f96949"
   d="m 2133.966,822.98 c -2.773,-1.307 -4.858,-3.289 -6.05,-6.152 3.221,0.352 6.133,1.432 8.568,3.633 -0.839,0.838 -1.679,1.679 -2.518,2.519 z"
   id="path116" />
		<path
   fill-rule="evenodd"
   clip-rule="evenodd"
   fill="#f39179"
   d="m 1181.893,822.882 c -2.662,-1.218 -4.593,-3.154 -5.756,-5.846 3.046,0.364 5.791,1.375 7.947,3.665 -0.73,0.727 -1.461,1.455 -2.191,2.181 z"
   id="path118" />
		<path
   fill-rule="evenodd"
   clip-rule="evenodd"
   fill="#d69384"
   d="m -72.121,-228.994 c -0.721,0.649 -1.442,1.299 -2.164,1.947 -2.131,-1.683 -2.881,-4.07 -3.372,-6.593 2.53,0.733 4.608,2.006 5.536,4.646 z"
   id="path120" />
		<path
   fill-rule="evenodd"
   clip-rule="evenodd"
   fill="#f7654a"
   d="m -52.056,825.024 c -2.148,-0.73 -3.425,-2.397 -4.549,-4.232 1.707,-0.036 3.469,-0.232 4.638,1.456 -0.029,0.923 -0.058,1.85 -0.089,2.776 z"
   id="path122" />
		<path
   fill-rule="evenodd"
   clip-rule="evenodd"
   fill="#fcce2e"
   d="m -1630.628,823.543 0.155,0.637 c 0,0 -0.542,0.392 -0.535,0.384 0.01,-0.008 -0.205,-0.656 -0.205,-0.656 z"
   id="path124" />
		<path
   fill-rule="evenodd"
   clip-rule="evenodd"
   fill="#ff4019"
   d="m -148.629,263.424 c 11.459,9.905 23.934,18.615 34.624,29.425 -3.556,3.618 -8.401,3.586 -12.893,4.553 -50.415,10.857 -85.134,38.916 -98.518,90.174 -4.957,18.983 -9.512,38.072 -14.368,57.083 -0.968,3.787 -1.207,7.991 -4.631,10.759 -9.299,0.368 -13.814,-7.468 -19.358,-12.466 -27.428,-24.724 -54.745,-49.582 -81.652,-74.886 -7.5,-7.053 -15.478,-13.635 -23.107,-20.567 -1.53,-1.527 -3.117,-3.005 -4.852,-4.315 -0.683,-0.508 -1.316,-1.073 -1.936,-1.655 -0.65,-0.553 -1.261,-1.147 -1.87,-1.746 -0.319,-0.288 -0.616,-0.596 -0.938,-0.886 -0.662,-0.577 -1.274,-1.196 -1.891,-1.818 -6.878,-6.432 -12.741,-13.949 -20.763,-19.146 -41.373,-34.364 -92.834,-20.575 -127.098,5.67 -27.943,21.403 -42.52,50.436 -50.238,83.899 -1.736,7.526 -1.414,16.146 -8.239,21.88 -13.322,-11.396 -24.993,-24.469 -37.41,-36.784 -10.766,-10.679 -20.808,-22.095 -32.487,-31.841 -6.167,-1.778 -9.534,-7.069 -13.684,-11.237 -33.428,-33.569 -74.045,-49.545 -121.115,-50.051 -72.037,-0.774 -133.436,25.826 -187.275,72.295 -41.14,35.507 -69.448,79.24 -85.32,131.131 -0.776,2.539 -1.546,5.104 -3.103,7.319 -1.285,1.511 -3.124,1.738 -4.381,0.578 -13.514,-12.462 -26.921,-25.039 -36.339,-41.127 1.772,-28.811 -0.952,-57.048 -9.911,-84.651 -6.418,-19.773 -15.969,-37.9 -26.81,-55.521 -61.895,-100.607 -127.199,-199.015 -191.992,-297.752 -18.982,-28.927 -37.858,-57.922 -56.783,-86.887 0.992,-0.786 2.034,-0.857 3.125,-0.214 10.875,7.245 19.818,16.753 29.395,25.479 35.431,32.289 70.606,64.858 105.88,97.319 2.205,2.029 4.437,4.029 6.64,6.06 5.377,4.955 11.46,7.093 19.012,7.013 34.296,-0.361 68.604,0.211 102.893,-0.409 22.641,-0.409 45.278,-0.762 67.911,-0.521 25.011,0.267 46.701,-8.8 67.187,-22.066 5.555,-3.598 10.33,-8.398 16.626,-10.854 -9.515,37.351 -19.07,74.693 -28.509,112.065 -2.032,8.049 -3.635,16.206 -5.441,24.312 -8.038,36.059 11.795,63.855 40.264,77.361 19.935,9.457 41.275,12.823 63.093,11.964 37.702,-1.484 71.493,-13.822 100.583,-38.298 10.271,-8.643 18.31,-19.203 26.374,-29.77 6.267,-0.76 9.427,4.064 13.323,7.484 44.932,39.441 90.015,78.708 134.972,118.119 11.014,9.655 11.477,9.314 15.142,-5.43 5.052,-20.321 9.305,-40.833 14.387,-61.146 0.926,-3.702 0.688,-8.115 4.712,-10.501 13.281,8.232 26.765,15.916 42.449,18.844 7.537,1.406 15.105,2.735 22.721,2.747 56.197,0.089 112.394,-0.047 168.591,-0.111 5.25,-2.678 10.919,-2.548 16.591,-2.546 47.59,0.014 95.181,-0.205 142.768,0.135 14.881,0.105 29.135,-2.075 43.055,-7.09 3.41,-1.229 6.805,-2.902 10.594,-1.376 z"
   id="path126" />
		<path
   fill-rule="evenodd"
   clip-rule="evenodd"
   fill="#ff4019"
   d="m -1088.121,837.91 c -12.497,5.451 -13.838,15.319 -10.998,27.096 2.115,8.768 1.429,17.854 2.408,26.786 2.789,25.425 4.463,50.972 6.441,76.481 0.224,2.883 0.895,5.899 -0.739,9.753 -8.73,-5.663 -17.335,-11.111 -25.804,-16.763 -28.786,-19.209 -56.184,-40.429 -85.422,-58.984 -3.49,-1.065 -6.714,-2.527 -9.681,-4.794 -17.861,-13.646 -36.117,-26.772 -53.695,-40.793 -2.61,-2.082 -5.215,-4.09 -6.293,-7.433 -10.612,-8.731 -20.684,-18.133 -32.087,-25.877 -19.82,-16.694 -39.656,-33.376 -59.451,-50.106 -3.241,-2.738 -6.301,-5.691 -11.329,-10.258 65.923,-0.146 129.497,-0.288 193.071,-0.429 4.553,-0.423 7.32,2.918 10.304,5.313 25.895,20.793 52.108,41.192 77.532,62.565 2.389,2.008 6.076,3.244 5.743,7.443 z"
   id="path128" />
		<path
   fill-rule="evenodd"
   clip-rule="evenodd"
   fill="#a38acf"
   d="m -1088.121,837.91 c -31.194,-25.106 -62.389,-50.214 -93.58,-75.32 7.788,-30.265 15.637,-60.513 23.343,-90.798 8.606,-33.83 17.149,-67.677 25.596,-101.547 6.999,-28.065 13.789,-56.182 20.738,-84.259 1.357,-5.486 3.024,-10.895 4.551,-16.33 13.983,12.767 24.915,28.397 38.83,41.218 4.944,4.869 1.364,10.081 0.199,14.873 -17.396,71.538 -36.256,142.71 -53.892,214.188 -1.669,6.764 -3.962,13.455 -3.414,20.577 1.698,5.422 6.197,8.446 10.291,11.711 17.312,13.802 34.536,27.712 51.865,41.493 2.57,2.044 5.428,3.884 6.061,7.504 -9.062,7.644 -20.173,11.528 -30.588,16.69 z"
   id="path130" />
		<path
   fill-rule="evenodd"
   clip-rule="evenodd"
   fill="#da7a67"
   d="m -1389.842,-55.36 c -1.039,0.072 -2.079,0.145 -3.121,0.216 -1.608,-0.824 -2.364,-2.235 -2.72,-3.923 2.63,0.162 4.583,1.385 5.841,3.707 z"
   id="path132" />
		<path
   fill-rule="evenodd"
   clip-rule="evenodd"
   fill="#ff4019"
   d="m 1761.604,398.484 c -18.131,-16.496 -36.253,-33.003 -54.409,-49.473 -1.691,-1.533 -3.082,-3.516 -5.476,-4.146 -22.641,-26.429 -50.7,-43.26 -85.42,-48.379 -2.605,-0.384 -5.126,-1.345 -7.682,-2.035 -5.945,-6.347 -13.85,-10.154 -20.419,-15.696 -0.575,-1.911 0.648,-2.729 2.072,-3.431 8.913,-1.235 17.63,1.559 26.761,0.412 24.564,-3.085 45.315,-14.823 66.193,-26.669 68.024,-38.596 135.967,-77.337 204.01,-115.899 8.105,-4.594 13.459,-3.471 20.434,2.028 50.974,40.192 101.686,80.726 153.274,120.131 13.313,10.168 27.744,18.023 44.595,21.357 16.15,3.195 30.189,-1.142 43.82,-9.026 3.814,-2.205 7.05,-6.5 12.439,-4.289 15.627,14.876 32.691,28.082 48.98,42.186 5.461,4.729 12.042,8.302 15.93,14.743 -28.4,20.892 -45.906,48.74 -53.117,83.18 -0.402,1.927 -1.182,3.775 -1.787,5.66 -5.441,0.442 -8.275,-3.995 -11.637,-6.827 -9.356,-7.884 -18.643,-15.939 -25.771,-26.068 -15.279,-17.51 -33.84,-30.961 -53.733,-42.568 -24.481,-14.286 -50.187,-26.404 -77.331,-34.307 -72.354,-21.062 -137.321,-5.523 -194.813,42.51 -16.988,14.193 -30.711,31.313 -42.406,50.075 -1.399,2.242 -3,4.357 -4.507,6.531 z"
   id="path134" />
		<path
   fill-rule="evenodd"
   clip-rule="evenodd"
   fill="#a38acf"
   d="m 2134.395,376.242 c 11.534,8.537 20.971,19.43 32.024,28.506 1.79,1.47 3.591,2.925 5.386,4.389 0.118,9.466 -3.523,18.157 -5.729,27.121 -11.969,48.631 -24.12,97.217 -36.238,145.812 -0.232,0.932 -0.834,1.771 -1.265,2.653 -6.739,-1.695 -11.222,-6.772 -16.091,-11.099 -27.462,-24.402 -54.436,-49.345 -81.563,-74.119 -2.311,-2.111 -5.713,-3.848 -4.195,-8.042 31,5.866 57.502,-3.142 80.343,-24.279 16.073,-14.874 26.639,-32.715 30.17,-54.591 1.678,-10.396 0.318,-20.451 -1.815,-30.541 -0.406,-1.924 -0.688,-3.873 -1.027,-5.81 z"
   id="path136" />
		<path
   fill-rule="evenodd"
   clip-rule="evenodd"
   fill="#ff4019"
   d="m 2026.725,491.462 c 8.07,9.258 17.599,17.004 26.604,25.265 24.91,22.853 50.142,45.357 75.245,67.997 -2.004,8.754 -3.768,17.572 -6.894,26.032 -14.111,-12.482 -28.195,-24.995 -42.347,-37.433 -3.716,-3.266 -7.636,-6.301 -11.468,-9.451 -22.801,-22.085 -48.153,-40.985 -73.813,-59.513 -18.628,-13.45 -37.331,-26.805 -55.165,-41.319 -8.046,-6.548 -9.276,-11.049 -4.702,-17.476 5.524,-7.762 11.858,-8.677 20.552,-2.771 22.587,15.345 45.129,30.756 67.701,46.121 1.372,0.935 2.855,1.704 4.287,2.548 z"
   id="path138" />
		<path
   fill-rule="evenodd"
   clip-rule="evenodd"
   fill="#f7a281"
   d="m 2128.055,816.863 c -1.168,-0.109 -1.871,-0.795 -2.285,-1.841 1.162,0.113 2.02,0.608 2.285,1.841 z"
   id="path140" />
		<path
   fill-rule="evenodd"
   clip-rule="evenodd"
   fill="#a38acf"
   d="m 1063.795,208.472 c 16.188,-39.612 22.287,-82.019 34.027,-122.863 1.717,-5.974 3.344,-11.973 5.256,-18.831 4.089,2.691 6.03,6.201 8.307,9.245 40.053,53.563 80.033,107.181 120.044,160.774 0.791,1.061 1.763,1.985 2.651,2.973 10.269,8.822 19.988,18.323 31.58,25.516 12.353,11.05 24.338,22.512 37.21,32.979 1.554,1.263 2.885,2.772 2.686,5.032 -10.108,6.271 -20.877,11.436 -30.006,19.322 -24.761,21.388 -39.867,48.292 -47.534,79.912 -9.688,39.953 -19.937,79.771 -29.983,119.637 -0.562,2.229 -1.481,4.365 -2.234,6.545 -8.956,-0.549 -13.349,-8.263 -18.943,-13.254 -17.861,-15.932 -35.787,-31.879 -52.069,-49.497 -2.503,-2.709 -6.674,-4.966 -4.479,-9.929 20.664,-8.049 39.068,-19.213 54.116,-36 19.894,-22.193 28.409,-47.918 24.384,-77.094 -2.957,-21.433 -16.574,-35.594 -36.143,-44.161 -1.809,-0.745 -3.545,-1.63 -5.193,-2.682 -25.725,-25.569 -53.754,-48.642 -80.043,-73.598 -4.7,-4.46 -11.77,-6.782 -13.634,-14.026 z"
   id="path142" />
		<path
   fill-rule="evenodd"
   clip-rule="evenodd"
   fill="#ff4019"
   d="m 1305.556,303.296 c -13.757,-12.039 -27.514,-24.079 -41.271,-36.118 3.102,-3.449 6.828,-1.583 10.238,-0.989 54.496,9.488 97.626,-8.519 129.797,-53.351 1.802,-2.512 3.069,-6.157 7.364,-5.533 32.935,27.493 65.87,54.986 98.804,82.481 2.27,1.896 5.024,3.342 6.022,6.433 -53.955,0.055 -107.918,0.276 -161.878,0.069 -16.782,-0.064 -33.229,1.077 -49.076,7.008 z"
   id="path144" />
		<path
   fill-rule="evenodd"
   clip-rule="evenodd"
   fill="#a38acf"
   d="m 1085.731,637.101 c 11.755,-6.121 23.239,-12.54 33.273,-21.461 23.247,-20.666 36.71,-45.851 37.147,-77.37 0.073,-5.311 -0.01,-10.624 -0.018,-15.936 7.745,-0.589 11.076,6.149 16.109,9.923 7.01,5.256 14.176,10.527 17.97,18.908 -0.024,10.104 -3.823,19.422 -6.189,29.02 -9.185,37.246 -18.586,74.438 -27.861,111.661 -0.481,1.932 -0.587,3.949 -2.24,5.36 -7.199,0.14 -11.017,-5.569 -15.819,-9.384 -15.908,-12.634 -30.399,-26.9 -45.674,-40.27 -3.089,-2.703 -7.147,-5.268 -6.698,-10.451 z"
   id="path146" />
		<path
   fill-rule="evenodd"
   clip-rule="evenodd"
   fill="#ff4019"
   d="m 1085.731,637.101 c 21.667,21.239 44.004,41.718 68.19,60.103 -1.843,10.372 -3.95,20.673 -7.958,30.478 -11.188,-9.783 -22.4,-19.54 -33.55,-29.368 -3.965,-3.496 -7.884,-7.028 -12.506,-9.668 -11,-12.076 -23.716,-21.282 -40.098,-24.695 -6.624,-1.38 -13.273,-1.043 -19.912,-1.051 -54.987,-0.068 -109.975,-0.027 -164.961,-0.064 -3.602,-0.002 -7.289,0.558 -10.719,-0.693 -0.177,-0.93 -0.466,-1.599 -0.401,-2.231 1.664,-16.313 1.671,-16.341 17.726,-16.385 52.32,-0.143 104.641,-0.447 156.959,-0.28 16.101,0.049 31.903,-0.875 47.23,-6.146 z"
   id="path148" />
		<path
   fill-rule="evenodd"
   clip-rule="evenodd"
   fill="#ff4019"
   d="m 1190.214,551.166 c -11.334,-9.639 -21.696,-20.427 -34.079,-28.829 -3.508,-7.94 -7.594,-15.506 -13.453,-22.028 -12.869,-14.324 -28.449,-22.201 -48.128,-22.325 -42.56,-0.27 -85.116,-0.697 -127.672,0.133 -2.968,0.058 -5.926,0.57 -8.888,0.871 -3.912,2.486 -8.144,2.398 -12.529,1.758 -8.266,-1.209 -16.617,-0.323 -24.907,-0.835 -4.78,-0.295 -10.937,0.56 -11.775,-6.308 -0.812,-6.644 1.268,-12.58 7.942,-15.781 3.693,-1.771 7.705,-2.013 11.707,-2.02 17.957,-0.03 35.914,-0.258 53.871,0.067 43.224,-0.77 86.458,0.583 129.678,-0.75 2.939,-0.091 6.102,-0.611 7.986,2.623 23.927,25.102 49.687,48.244 75.832,70.973 -0.719,7.767 -2.57,15.253 -5.585,22.451 z"
   id="path150" />
		<path
   fill-rule="evenodd"
   clip-rule="evenodd"
   fill="#ff411a"
   d="m 1393.69,485.228 c 1.901,-9.23 3.277,-16.734 5.041,-24.147 0.979,-4.115 3.147,-6.548 8.267,-6.844 22.648,-1.308 45.296,-0.755 67.94,-0.545 8.784,0.081 12.659,3.563 13.467,10.394 0.971,8.214 -4.39,17.023 -11.56,18.87 -1.274,0.328 -2.642,0.297 -3.967,0.426 -25.89,2.517 -51.833,0.395 -79.188,1.846 z"
   id="path152" />
		<path
   fill-rule="evenodd"
   clip-rule="evenodd"
   fill="#fffdd8"
   d="m -1128.71,763.083 c -2.293,-6.118 0.726,-11.675 2.123,-17.279 18.963,-76.064 38.071,-152.092 57.19,-228.117 0.57,-2.271 1.433,-4.439 0.756,-6.815 13.248,-49.753 38.29,-92.735 75.052,-128.67 47.071,-46.012 102.641,-75.214 168.473,-83.82 47.624,-6.227 92.121,1.509 132.562,28.424 13.977,9.302 25.942,20.779 36.303,33.954 4.41,8.525 8.909,17.01 13.219,25.59 16,31.859 18.242,65.596 13.599,100.276 -3.1,23.145 -10.589,45.298 -15.234,68.088 -7.352,1.712 -13.147,6.352 -19.065,10.555 -44.785,31.8 -90.808,61.687 -138.788,88.417 -49.993,27.853 -101.184,53.365 -154.19,75.061 -26.76,10.952 -53.679,21.512 -80.514,32.279 -0.892,0.357 -1.654,1.037 -2.477,1.566 -3.545,4.007 -8.406,3.476 -12.957,3.51 -20.538,0.155 -41.078,0.028 -61.617,0.093 -5.095,0.014 -9.846,-1.042 -14.435,-3.112 z"
   id="path154" />
		<path
   fill-rule="evenodd"
   clip-rule="evenodd"
   fill="#a38acf"
   d="m -1271.903,849.259 c 23.222,17.675 46.444,35.351 69.668,53.022 -28.976,15.601 -57.938,31.23 -86.935,46.798 -17.282,9.279 -34.606,18.479 -51.942,27.657 -1.722,0.911 -3.399,2.153 -5.544,1.962 0.844,-7.695 40.038,-75.563 74.753,-129.439 z"
   id="path156" />
		<path
   fill-rule="evenodd"
   clip-rule="evenodd"
   fill="#ff4019"
   d="m -1128.71,763.083 c 26.371,-0.098 52.741,-0.189 79.111,-0.299 3.295,-0.014 6.59,-0.125 9.89,-0.192 16.908,0.219 33.812,0.649 50.713,0.578 9.953,-0.042 19.759,1.187 29.534,1.803 0.835,2.961 -1.318,3.904 -2.86,4.754 -30.757,16.938 -61.56,33.794 -92.37,50.635 -0.851,0.464 -1.894,0.577 -2.844,0.856 -21.647,-17.284 -43.318,-34.546 -64.921,-51.891 -2.283,-1.833 -4.856,-3.479 -6.253,-6.244 z"
   id="path158" />
		<path
   fill-rule="evenodd"
   clip-rule="evenodd"
   fill="#a38acf"
   d="m -595.401,252.822 c -6.746,29.752 -12.821,59.668 -21.444,88.773 -2.157,0.933 -3.421,-0.254 -4.649,-1.327 -48.29,-42.188 -96.57,-84.386 -144.845,-126.591 -3.748,-3.275 -7.242,-6.86 -11.598,-9.381 13.073,-28.615 18.057,-59.575 25.798,-89.712 14.763,-57.484 29.024,-115.096 43.535,-172.645 0.779,-3.091 0.305,-6.851 4,-8.623 3.296,0.859 6.069,2.584 8.404,5.047 14.145,14.929 30.358,27.66 44.658,42.463 19.107,19.779 40.426,37.312 59.265,57.397 2.952,3.146 6.159,6.049 7.816,10.169 -0.349,10.418 -4.251,20.07 -6.624,30.037 -7.618,31.992 -16.324,63.744 -23.176,95.896 -5.785,27.148 -1.91,52.994 16.688,75.153 0.849,1.01 1.454,2.225 2.172,3.344 z"
   id="path160" />
		<path
   fill-rule="evenodd"
   clip-rule="evenodd"
   fill="#fcce2e"
   d="m -148.629,263.424 c -16.622,8.304 -34.117,11.813 -52.787,11.646 -50.439,-0.457 -100.886,-0.205 -151.329,-0.271 -2.97,-0.004 -5.94,-0.322 -8.903,-0.496 37.584,-52.329 74.604,-105.022 106.156,-161.313 0.641,-1.144 1.007,-2.441 1.502,-3.668 2.864,-3.748 7.094,-3.283 10.995,-3.298 31.313,-0.113 62.629,-0.365 93.938,0.077 16.887,0.239 32.069,5.641 44.33,17.792 4.233,4.195 8.853,8.196 9.616,14.688 1.064,6.899 4.231,13.215 5.228,20.188 3.915,27.4 -5.086,50.833 -21.291,72.295 -10.195,13.503 -23.51,23.267 -37.455,32.36 z"
   id="path162" />
		<path
   fill-rule="evenodd"
   clip-rule="evenodd"
   fill="#fcce2e"
   d="m -241.857,90.503 c 26.291,-52.887 52.756,-105.693 74.336,-160.758 0.602,-1.534 1.048,-3.129 1.565,-4.696 1.809,-2.755 4.707,-3.76 7.661,-4.118 20.798,-2.52 59.104,4.257 73.744,28.199 1.422,3.408 2.869,6.812 4.396,10.184 11.804,36.15 1.965,67.275 -22.417,94.799 -7.709,8.703 -16.343,16.529 -26.024,23.115 -20.102,12.431 -42.209,16.885 -65.535,16.643 -11.925,-0.123 -23.853,0.094 -35.775,-0.087 -4.197,-0.064 -8.755,0.656 -11.951,-3.281 z"
   id="path164" />
		<path
   fill-rule="evenodd"
   clip-rule="evenodd"
   fill="#ff4019"
   d="m -241.857,90.503 c 19.942,0.809 39.905,1.01 59.834,0.216 19.229,-0.767 37.085,-6.785 53.734,-16.39 6.021,-0.193 9.594,4.315 13.391,7.674 31.747,28.088 63.445,56.233 95.002,84.535 8.824,7.914 18.973,14.44 25.729,24.523 2.987,14.836 6,29.666 10.165,44.233 -11.019,-7.491 -20.25,-17.095 -30.231,-25.8 C -39,187.9 -63.499,165.996 -88.128,144.242 c -2.236,-1.975 -4.639,-3.762 -6.974,-5.647 -5.26,-4.564 -9.1,-10.382 -14.328,-15.086 -10.474,-9.421 -22.854,-13.877 -36.214,-14.221 -36.104,-0.928 -72.235,-0.986 -108.35,0.034 -47.626,-0.014 -95.254,-0.029 -142.882,-0.043 -3.282,-0.002 -6.564,-10e-4 -8.595,-10e-4 -2.238,-1.403 -2.193,-2.478 -2.019,-3.382 2.995,-15.487 3.013,-15.182 18.785,-15.542 48.955,-1.121 97.899,0.524 146.848,0.149 z"
   id="path166" />
		<path
   fill-rule="evenodd"
   clip-rule="evenodd"
   fill="#ff4019"
   d="m -584.46,48.392 c -25.881,-24.842 -51.719,-49.728 -77.661,-74.505 -11.769,-11.241 -23.766,-22.243 -35.609,-33.407 -2.403,-2.267 -4.58,-4.773 -6.867,-7.167 7.214,-1.081 14.506,-2.015 21.767,-1.354 33.197,3.024 62.875,-5.882 89.438,-25.768 4.469,1.803 7.075,5.786 10.354,8.947 8.74,8.424 17.342,16.991 25.999,25.498 -8.525,34.033 -17.765,67.893 -25.41,102.148 -0.431,1.924 -1.33,3.742 -2.011,5.608 z"
   id="path168" />
		<path
   fill-rule="evenodd"
   clip-rule="evenodd"
   fill="#ff4019"
   d="m -86.083,-49.08 c -12.024,-16.284 -28.747,-23.587 -48.335,-26.272 -10.643,-1.459 -21.054,-2.194 -31.539,0.401 -28.611,-0.037 -57.224,-0.048 -85.835,-0.118 -32.948,-0.081 -65.896,-0.174 -98.844,-0.387 -3.519,-0.023 -7.245,0.684 -11.025,-1.344 0.299,-4.76 2.521,-8.92 3.63,-13.348 0.91,-3.636 3.826,-3.14 6.396,-3.178 8.651,-0.127 17.304,-0.148 25.956,-0.222 53.24,-0.451 106.491,0.85 159.722,-0.991 3.311,-0.114 6.611,-0.481 9.918,-0.731 10.641,-0.876 19.976,-5.563 29.362,-10.083 2.936,-1.413 5.803,-2.971 8.698,-4.466 11.927,8.568 22.102,19.153 33.006,28.893 16.622,14.845 32.764,30.236 50.598,43.673 2.403,13.43 6.456,26.58 6.828,40.354 -7.615,0.811 -10.44,-6.091 -14.875,-9.865 -13.05,-11.108 -26.182,-22.191 -37.923,-34.75 -2.053,-2.411 -3.686,-5.147 -5.738,-7.566 z"
   id="path170" />
		<path
   fill-rule="evenodd"
   clip-rule="evenodd"
   fill="#ff4019"
   d="m -1043.981,-73.104 c 0.752,-1.832 2.485,-1.73 4.012,-2.037 20.235,8.006 41.379,8.247 62.638,7.16 8.612,-0.44 17.203,-0.699 25.827,-0.446 4.203,0.124 6.261,1.281 5.038,5.891 -5.254,19.813 -10.424,39.646 -15.624,59.474 -27.299,-23.348 -54.596,-46.695 -81.891,-70.042 z"
   id="path172" />
		<path
   fill-rule="evenodd"
   clip-rule="evenodd"
   fill="#fffdd8"
   d="m 2161.797,263.369 c -2.048,1.072 -4.26,1.916 -6.117,3.253 -25.357,18.26 -51.314,17.302 -77.869,2.779 -15.893,-8.69 -29.602,-20.374 -43.744,-31.454 -43.521,-34.097 -86.949,-68.313 -130.438,-102.452 -7.79,-6.115 -5.952,-5.245 -13.719,-0.845 -74.135,42.002 -148.278,83.989 -222.396,126.023 -15.495,8.788 -31.812,14.884 -49.59,17.325 -9.472,1.302 -18.574,0.001 -27.795,-1.301 -2.108,-0.926 -4.632,-0.213 -6.607,-1.667 -6.776,-2.937 -12.752,-7.143 -18.209,-12.021 -16.205,-14.49 -18.112,-32.301 -11.667,-51.917 3.251,-9.893 8.691,-18.684 14.137,-27.445 32.122,-51.687 64.243,-103.374 96.462,-155 11.092,-17.774 22.462,-35.374 33.708,-53.051 16.988,-6.796 33.985,-13.572 50.962,-20.396 71.988,-28.938 144.98,-55.066 219.105,-77.988 76.284,-23.59 153.519,-43.573 231.731,-59.634 40.045,-8.223 80.342,-15.135 120.837,-20.908 34.244,-4.883 68.538,-9.224 102.979,-12.411 0.801,20.9 -8.337,37.908 -21.127,53.4 -10.363,12.554 -23.849,21.068 -37.863,28.938 -48.177,27.057 -96.277,54.244 -144.416,81.369 -16.238,9.15 -32.398,18.445 -48.808,27.279 -4.759,2.563 -5.44,5.66 -4.824,10.516 2.675,21.083 4.945,42.217 7.483,63.317 2.379,19.783 4.957,39.542 7.353,59.323 1.438,11.869 3.121,23.731 3.933,35.649 1.31,19.223 5.617,38.224 4.543,57.608 -1.094,19.738 -6.73,37.809 -19.706,53.271 -2.588,3.086 -6.653,4.574 -8.338,8.44 z"
   id="path174" />
		<path
   fill-rule="evenodd"
   clip-rule="evenodd"
   fill="#fcce2e"
   d="m -397.561,317.263 c 7.23,5.734 13.505,12.438 19.598,19.326 0.563,0.872 1.232,1.65 2.031,2.316 l -0.098,-0.119 c 0.636,0.77 1.342,1.469 2.101,2.116 l -0.07,-0.087 c 1.246,2.475 3.616,3.996 5.23,6.163 11.131,11.463 20.104,24.687 30.22,36.978 21.731,26.403 43.648,52.657 65.036,79.339 3.49,4.354 9.403,7.907 7.842,15.07 -17.967,3.451 -35.402,8.947 -52.99,13.839 -58.664,16.316 -116.34,35.579 -172.632,58.834 -39.063,16.139 -77.436,33.806 -115.084,53.046 -8.254,4.219 -16.277,9.122 -25.491,11.229 3.767,-20.51 9.726,-40.49 14.841,-60.674 2.926,-11.545 6.32,-22.97 9.505,-34.448 2.726,-4.945 7.899,-7.003 12.083,-10.224 18.219,-14.026 35.149,-29.58 52.457,-44.667 26.63,-23.215 51.172,-48.649 75.9,-73.843 19.113,-19.472 37.355,-39.777 55.146,-60.482 4.313,-5.02 8.484,-10.298 14.375,-13.712 z"
   id="path176" />
		<path
   fill-rule="evenodd"
   clip-rule="evenodd"
   fill="#fcce2e"
   d="m -245.732,455.158 c 5.909,-16.901 8.694,-34.623 13.586,-51.794 2.179,-7.648 3.874,-15.435 6.043,-23.086 10.541,-37.184 35.488,-61.389 69.828,-76.967 13.414,-6.085 27.691,-8.951 42.271,-10.462 8.302,0.401 16.562,1.188 24.649,3.172 33.571,8.232 61.59,31.602 54.938,79.371 -3.395,24.373 -11.226,47.717 -17.653,71.375 -22.229,-0.159 -44.163,2.927 -66.173,5.568 -40.402,4.852 -80.349,12.239 -120.222,20.156 -3.227,0.641 -6.608,0.501 -9.918,0.724 -2.763,-6.554 -1.29,-12.487 2.651,-18.057 z"
   id="path178" />
		<path
   fill-rule="evenodd"
   clip-rule="evenodd"
   fill="#a38acf"
   d="m -245.732,455.158 c 0.984,6.291 -2.139,11.979 -2.648,18.055 -3.147,3.482 -2.371,8.695 -5.769,12.744 -4.896,-0.689 -6.742,-6.607 -11.522,-7.587 -5.188,-9.314 -12.552,-16.986 -19.147,-25.223 -27.97,-34.926 -57.431,-68.647 -84.322,-104.443 -0.396,-0.525 -0.696,-1.121 -1.042,-1.684 -0.515,-1.824 0.027,-2.589 1.962,-1.96 18.202,15.101 35.213,31.525 52.723,47.396 23.165,20.998 45.456,42.972 69.765,62.702 z"
   id="path180" />
		<path
   fill-rule="evenodd"
   clip-rule="evenodd"
   fill="#fffdd8"
   d="m 1411.685,207.305 c -5.985,6.65 -9.868,14.854 -16.073,21.374 -34.583,36.34 -76.078,50.408 -125.472,39.148 -1.964,-0.447 -3.844,-0.96 -5.856,-0.649 -7.75,-5.504 -15.931,-10.478 -22.583,-17.372 -2.913,-3.02 -6.577,-5.568 -7.622,-10.039 12.488,-7.093 23.475,-16.344 35.152,-24.596 51.174,-36.157 104.015,-69.687 158.252,-101.038 4.035,-2.333 8.035,-4.727 12.049,-7.091 -8.045,33.767 -14.801,67.889 -27.847,100.263 z"
   id="path182" />
		<path
   fill-rule="evenodd"
   clip-rule="evenodd"
   fill="#ff4019"
   d="m 1063.795,208.472 c 10.426,7.184 19.054,16.447 28.509,24.749 20.203,17.737 40.349,35.548 59.681,54.246 2.132,2.062 4.61,3.852 5.872,6.689 -1.501,2.345 -3.914,2.28 -6.234,2.251 -64.298,-0.784 -128.599,0.078 -192.896,-0.436 -1.667,-0.014 -3.324,-0.207 -4.946,-0.498 -15.125,-6.334 -24.597,-19.436 -35.93,-30.314 -0.784,-0.754 0.026,-1.747 0.903,-2.303 10.728,2.054 21.123,5.886 32.214,5.999 45.697,0.469 81.241,-19.063 108.396,-55.067 1.396,-1.853 2.402,-4 4.431,-5.316 z"
   id="path184" />
		<path
   fill-rule="evenodd"
   clip-rule="evenodd"
   fill="#a38acf"
   d="m 918.753,262.857 c 7.812,9.042 17.282,16.331 25.894,24.529 1.914,1.822 3.824,3.649 5.735,5.475 -1.339,3.169 -4.127,4.399 -7.163,4.431 -19.457,0.202 -38.921,0.919 -58.371,-0.284 -1.313,-0.081 -2.527,-0.729 -3.703,-1.313 -18.581,-14.396 -34.809,-31.411 -52.006,-47.357 -1.914,-1.774 -3.816,-3.74 -3.871,-6.687 2.309,-7.229 8.825,-11.352 12.831,-17.397 15.601,-23.543 22.2,-48.441 13.237,-76.162 -0.714,-2.205 -1.256,-4.46 -0.834,-6.82 0.604,-2.264 2.053,-3.487 4.413,-3.587 12.521,5.937 22.61,14.887 31.382,25.461 1.049,4.425 -0.962,8.384 -1.823,12.538 -2.605,12.574 -5.878,25.023 -2.834,38.142 3.227,13.908 8.948,26.181 20.159,35.414 5.595,4.605 11.299,9.082 16.954,13.617 z"
   id="path186" />
		<path
   fill-rule="evenodd"
   clip-rule="evenodd"
   fill="#ff4019"
   d="m 886.297,163.144 c -10.865,-7.158 -20.158,-16.318 -30.589,-24.03 -3.898,-1.871 -8.22,-2.89 -11.655,-5.735 -16.516,-16.916 -36.763,-22.073 -59.994,-21.683 -48.951,0.824 -97.926,0.251 -146.891,0.25 -3.331,0 -6.68,0.215 -9.988,-0.067 -5.4,-0.462 -12.413,1.434 -14.512,-5.668 -1.878,-6.356 -0.022,-12.533 5.786,-16.813 4.809,-1.945 9.866,-1.299 14.829,-1.304 54.652,-0.05 109.304,-0.017 163.956,-0.053 4.649,-0.004 9.336,0.444 13.915,-0.685 8.57,-1.186 16.729,-4.374 25.326,-5.494 2.097,0.098 3.773,1.186 5.209,2.563 16.438,15.756 33.303,31.052 49.948,46.583 1.279,1.194 1.613,2.835 2.159,4.381 -2.046,9.373 -3.171,18.997 -7.499,27.755 z"
   id="path188" />
		<path
   fill-rule="evenodd"
   clip-rule="evenodd"
   fill="#a38acf"
   d="m 893.797,135.388 c -19.321,-16.703 -38.061,-34.035 -56.221,-51.993 0.508,-3.006 2.943,-4.236 5.237,-5.48 19.169,-10.403 35.054,-24.397 46.846,-42.844 1.631,-2.551 3.956,-4.354 6.018,-6.449 9.306,-17.788 12.72,-36.475 8.823,-56.355 -0.563,-2.873 -0.344,-5.899 -0.488,-8.855 4.525,-2.189 6.482,1.841 8.777,4.048 6.272,6.033 14.724,9.847 18.74,18.188 -2.123,9.534 -4.145,19.094 -6.429,28.59 -0.771,3.209 -1.461,6.367 -1.364,9.664 -6.176,16.172 -8.982,33.268 -13.576,49.878 -5.664,20.476 -10.058,41.296 -16.363,61.608 z"
   id="path190" />
		<path
   fill-rule="evenodd"
   clip-rule="evenodd"
   fill="#a38acf"
   d="m -79.771,-43.225 c 15.093,13.57 30.186,27.142 45.279,40.712 2.215,1.991 4.101,4.39 6.941,5.612 4.428,10.896 5.045,22.627 7.175,33.992 6.782,36.196 13.239,72.457 19.356,108.771 2.53,15.018 6.23,29.884 6.854,45.199 -16.906,-13.014 -32.395,-27.671 -48.438,-41.687 -28.591,-24.978 -56.103,-51.186 -85.681,-75.042 8.845,-7.965 18.547,-15.013 26.182,-24.274 16.633,-20.177 26.109,-42.824 24.373,-69.512 -0.482,-7.402 -3.301,-14.166 -4.651,-21.307 -0.458,-2.226 0.523,-2.931 2.61,-2.464 z"
   id="path192" />
		<path
   fill-rule="evenodd"
   clip-rule="evenodd"
   fill="#ff4019"
   d="M 78.177,302.875 C 66.7,289.525 53.867,277.337 43.838,262.747 c 7.3,2.188 14.546,4.588 21.912,6.532 49.594,13.095 94.552,2.396 135.883,-26.687 0.542,-0.381 1.135,-0.689 1.702,-1.029 21.428,22.669 42.858,45.335 64.288,68.001 0.214,3.407 -2.689,4.307 -4.787,5.675 -19.475,12.703 -35.801,28.381 -47.039,49.004 -1.139,2.09 -1.93,5.269 -5.614,4.352 -8.347,-7.739 -14.491,-17.404 -22.365,-25.555 -3.28,-1.384 -5.895,-3.609 -8.106,-6.361 -19.076,-33.02 -57.811,-42.553 -89.191,-34.656 -3.964,0.996 -8.017,3.896 -12.344,0.852 z"
   id="path194" />
		<path
   fill-rule="evenodd"
   clip-rule="evenodd"
   fill="#fcce2e"
   d="m 895.677,28.622 c -10.691,21.882 -27.895,37.397 -48.516,49.549 -3.132,1.845 -6.386,3.484 -9.583,5.222 -7.742,2.043 -15.14,5.527 -23.358,5.553 -3.479,1.737 -7.205,0.867 -10.803,0.871 -58.229,0.063 -116.458,0.023 -174.688,0.096 -3.577,0.004 -7.325,-0.997 -10.743,1.011 -5.956,17.891 -5.956,17.881 12.373,17.893 51.953,0.032 103.915,0.659 155.854,-0.148 24.489,-0.382 45.169,6.122 61.755,24.396 2.078,2.229 3.19,4.931 3.829,7.862 13.607,35.17 4.04,65.775 -18.5,93.813 -2.283,2.84 -4.672,5.595 -7.011,8.39 -0.917,4.217 -3.986,6.887 -7.091,9.379 -19.572,15.713 -41.735,25.228 -67.005,25.312 -87.998,0.295 -175.997,0.166 -263.996,0.073 -16.614,-0.018 -32.28,-4.422 -47.302,-11.272 -4.572,-2.085 -9.051,-4.403 -11.065,-9.519 -25.769,-23.654 -31.383,-53.735 -23.975,-85.873 13.27,-57.566 28.371,-114.71 42.898,-171.98 2.102,-8.287 2.698,-17.039 6.99,-24.718 33.715,12.392 68.004,22.87 103.049,30.817 28.797,6.53 57.761,12.04 87.078,15.832 29.657,3.836 59.391,6.203 89.226,8.175 38.938,2.572 77.851,1.643 116.758,1 14.579,-0.24 29.196,-1.574 43.826,-1.734 z"
   id="path196" />
		<path
   fill-rule="evenodd"
   clip-rule="evenodd"
   fill="#ff411a"
   d="m 931.529,-14.354 c -7.969,-4.761 -14.001,-11.885 -21.302,-17.46 -2.077,-1.587 -4.145,-3.185 -6.216,-4.776 -3.436,-4.905 -6.58,-10.051 -10.361,-14.676 -12.486,-15.266 -28.238,-23.662 -48.465,-23.586 -57.996,0.217 -115.993,0.096 -173.99,0.029 -3.568,-0.004 -7.314,0.936 -10.68,-1.02 -0.17,-0.738 -0.479,-1.379 -0.436,-1.995 1.082,-15.627 1.081,-16.159 16.444,-16.355 30.991,-0.396 62.003,-0.683 92.984,-0.025 31.68,0.672 63.299,-0.871 94.948,-1.122 2.332,-0.019 4.665,-0.034 6.993,-0.053 15.787,15.944 33.001,30.34 49.563,45.447 5.362,4.891 10.819,9.679 16.23,14.509 -1.904,7.023 -3.807,14.054 -5.712,21.083 z"
   id="path198" />
		<path
   fill-rule="evenodd"
   clip-rule="evenodd"
   fill="#fffdd8"
   d="m -397.561,317.263 c -4.456,7.903 -11.197,13.982 -17.105,20.642 -47.006,52.977 -96.191,103.782 -150.422,149.516 -13.688,11.544 -26.398,24.307 -42.438,32.776 6.7,-27.356 13.366,-54.715 20.138,-82.048 0.723,-2.917 1.742,-5.721 1.035,-8.771 3.458,-12.839 6.766,-25.724 10.408,-38.514 11.58,-40.659 36.951,-69.733 75.534,-86.421 36.397,-15.74 71.364,-13.868 102.85,12.82 z"
   id="path200" />
		<path
   fill-rule="evenodd"
   clip-rule="evenodd"
   fill="#fcce2e"
   d="m 725.836,336.918 c 7.556,22.485 8.093,45.002 0.456,67.606 -2.793,8.267 -6.544,16.049 -11.456,23.226 -31.796,46.457 -63.646,92.876 -95.499,139.292 -0.931,1.356 -2.088,2.558 -3.139,3.83 -48.649,-24.033 -98.867,-44.329 -149.799,-62.936 -6.229,-2.275 -12.334,-4.889 -18.496,-7.346 -2.327,-3.685 0.245,-6.428 2.066,-9.011 34.348,-48.706 67.084,-98.539 102.074,-146.784 22.913,-31.594 54.776,-49.62 93.283,-53.766 31.916,-3.437 59.04,7.197 77.879,34.746 2.648,3.295 1.117,7.575 2.631,11.143 z"
   id="path202" />
		<path
   fill-rule="evenodd"
   clip-rule="evenodd"
   fill="#ff4019"
   d="m 722.102,327.17 c -12.108,-15.174 -26.444,-27.25 -45.857,-31.747 -21.416,-4.963 -42.309,-2 -62.56,5.656 -28.682,10.845 -50.319,30.32 -67.491,55.446 -31.145,45.569 -62.674,90.876 -93.979,136.336 -1.662,2.412 -4.103,4.477 -4.313,7.73 -6.941,7.169 -11.444,16.145 -17.646,23.864 -2.008,2.498 -3.402,5.58 -7.134,7.112 -2.622,-13.781 -5.185,-27.252 -7.747,-40.723 -3.041,-3.356 -3.975,-7.54 -4.878,-11.815 -8.524,-40.365 -16.431,-80.852 -23.891,-121.426 -1.323,-7.201 -2.722,-14.371 -5.807,-21.115 -1.344,-2.938 -3.187,-6.02 -0.912,-9.394 16.647,-23.333 33.294,-46.665 49.94,-69.997 20.313,12.682 42.391,18.036 66.367,17.932 82.573,-0.357 165.152,-0.496 247.725,0.004 30.902,0.188 57.291,-9.535 79.842,-30.358 0.711,-0.657 1.677,-1.041 2.524,-1.55 17.754,16.569 36.587,31.982 53.2,49.769 -8.121,4.889 -17.435,2.816 -26.13,4.149 -35.71,5.477 -65.175,21.505 -88.36,49.22 -2.675,3.196 -4.556,7.521 -9.412,8.351 -9.107,-7.32 -18.215,-14.64 -27.322,-21.96 -2.89,-0.886 -4.495,-3.218 -6.159,-5.484 z"
   id="path204" />
		<path
   fill-rule="evenodd"
   clip-rule="evenodd"
   fill="#fcce2e"
   d="m 379.888,327.096 c 9.596,18.675 10.858,39.462 14.932,59.513 7.05,34.708 13.727,69.492 20.558,104.241 -46.911,-11.678 -93.827,-23.37 -141.52,-31.456 -21.854,-3.705 -43.771,-7.245 -65.934,-8.783 -7.039,-25.149 -8.965,-50.256 0.495,-75.307 0.812,-2.15 1.187,-4.467 1.764,-6.708 7.079,-11.173 13.467,-22.741 22.948,-32.32 10.365,-10.473 21.9,-19.223 34.492,-26.712 12.848,-5.393 25.787,-10.179 39.916,-11.388 27.063,-2.316 50.514,4.413 68.684,25.651 1.053,1.233 2.435,2.186 3.665,3.269 z"
   id="path206" />
		<path
   fill-rule="evenodd"
   clip-rule="evenodd"
   fill="#fcce2e"
   d="m 755.584,354.615 c 22.066,-32.558 53.05,-51.541 91.168,-59.282 10.73,-2.18 21.755,-2.534 32.735,-2.438 0.624,0.216 1.239,0.593 1.873,0.624 22.39,1.104 44.78,1.107 67.171,0.028 0.626,-0.03 1.233,-0.448 1.85,-0.687 54.227,0.074 108.451,0.083 162.676,0.268 14.937,0.051 29.905,-0.777 44.803,1.032 1.351,0.712 2.703,1.427 4.057,2.143 -0.043,3.539 -2.801,5.083 -5.137,6.888 -58.541,45.251 -113.169,94.855 -164.629,147.98 -3.052,3.15 -6.393,5.791 -10.366,7.632 -17.554,0.116 -35.107,0.229 -52.661,0.356 -2.65,0.02 -5.306,0.023 -7.948,0.195 -5.239,0.343 -8.78,2.52 -9.099,8.377 -0.141,2.605 -0.778,5.184 -1.399,9.085 15.954,0.906 31.812,-0.846 47.317,2.169 -7.877,11.171 -17.505,20.865 -26.529,31.043 -41.531,46.842 -81.933,94.588 -118.775,145.262 -6.238,8.581 -11.099,18.161 -18.656,25.785 -32.146,-21.138 -63.003,-44.223 -96.235,-63.717 -4,-2.346 -8.129,-4.472 -12.2,-6.701 3.211,-18.678 8.63,-36.834 13.199,-55.182 13.563,-54.458 27.559,-108.807 41.207,-163.243 3.348,-13.356 9.477,-25.455 15.578,-37.617 z"
   id="path208" />
		<path
   fill-rule="evenodd"
   clip-rule="evenodd"
   fill="#fcce2e"
   d="m 78.177,302.875 c 12.987,-3.994 26.112,-7.266 39.86,-5.951 27.97,2.675 50.636,14.02 64.289,39.848 2.213,3.113 2.854,6.726 3.303,10.399 4.691,20.302 0.655,40.03 -4.129,59.652 -3.125,12.817 -6.717,25.521 -10.102,38.279 -26.466,-1.271 -52.919,-2.858 -79.396,-3.714 -18.908,-0.611 -37.85,-0.259 -56.775,-0.3 -13.614,-0.029 -27.229,0.053 -40.843,-0.016 -7.488,-0.038 -7.487,-0.133 -9.048,-8.066 3.725,-18.219 7.949,-36.408 14.581,-53.734 12.875,-33.638 37.285,-56.699 69.56,-71.853 2.966,-1.391 6.382,-1.911 8.7,-4.544 z"
   id="path210" />
		<path
   fill-rule="evenodd"
   clip-rule="evenodd"
   fill="#f37961"
   d="m 1583.522,275.031 c 2.433,-0.354 4.751,-0.257 6.608,1.668 -0.646,0.685 -1.29,1.37 -1.934,2.055 -2.133,-0.517 -3.594,-1.879 -4.674,-3.723 z"
   id="path212" />
		<path
   fill-rule="evenodd"
   clip-rule="evenodd"
   fill="#d3948d"
   d="m 722.102,327.17 c 2.426,1.409 4.678,3.015 6.16,5.484 -1.966,0.764 -2.129,2.552 -2.426,4.265 -2.44,-2.793 -3.261,-6.204 -3.734,-9.749 z"
   id="path214" />
		<path
   fill-rule="evenodd"
   clip-rule="evenodd"
   fill="#cb9695"
   d="m 185.629,347.171 c -2.027,-3.172 -3.201,-6.615 -3.305,-10.398 2.475,1.525 4.517,3.43 5.493,6.267 -1.678,0.875 -1.758,2.596 -2.188,4.131 z"
   id="path216" />
		<path
   fill-rule="evenodd"
   clip-rule="evenodd"
   fill="#ffffff"
   d="m -1018.532,375.09 c -59.321,-91.446 -118.381,-181.173 -178.905,-272.342 5.187,0 8.378,-0.006 11.569,10e-4 39.653,0.088 79.309,-0.021 118.958,0.371 15.12,0.149 29.85,-1.259 44.358,-5.64 3.668,-1.107 7.459,-2.86 11.604,-2.097 1.677,2.391 0.08,4.457 -0.476,6.561 -6.379,24.136 -13.011,48.206 -19.121,72.408 -7.935,31.426 -1.486,59.371 21.233,83.063 12.231,12.755 25.325,24.608 38.261,36.627 8.044,7.475 15.997,15.032 23.678,24.279 -26.967,14.594 -49.329,34.291 -71.159,56.769 z"
   id="path218" />
		<path
   fill-rule="evenodd"
   clip-rule="evenodd"
   fill="#c89799"
   d="m -368.222,345.06 c -0.653,0.653 -1.307,1.307 -1.961,1.96 -2.343,-1.409 -4.106,-3.175 -3.816,-6.204 2.612,0.479 4.542,1.889 5.777,4.244 z"
   id="path220" />
		<path
   fill-rule="evenodd"
   clip-rule="evenodd"
   fill="#d29699"
   d="m -373.929,340.903 c -1.259,-0.15 -1.907,-0.907 -2.1,-2.116 1.218,0.191 1.996,0.82 2.1,2.116 z"
   id="path222" />
		<path
   fill-rule="evenodd"
   clip-rule="evenodd"
   fill="#e09c81"
   d="m -375.932,338.906 c -1.197,-0.314 -1.804,-1.147 -2.031,-2.314 1.068,0.427 1.848,1.109 2.031,2.314 z"
   id="path224" />
		<path
   fill-rule="evenodd"
   clip-rule="evenodd"
   fill="#fffdd8"
   d="m 981.784,458.803 c 14.079,-16.384 29.864,-31.112 45.326,-46.12 42.66,-41.407 87.546,-80.274 134.806,-116.377 22.346,6.788 39.168,29.657 40.647,52.658 3.246,50.479 -35.058,92.35 -74.072,106.037 -2.816,0.988 -5.686,1.826 -8.527,2.737 -44.047,3.021 -88.153,0.438 -132.226,1.331 -1.981,0.041 -3.968,-0.171 -5.954,-0.266 z"
   id="path226" />
		<path
   fill-rule="evenodd"
   clip-rule="evenodd"
   fill="#c190a8"
   d="m -79.771,-43.225 c -0.869,0.821 -1.738,1.643 -2.609,2.465 -2.331,-2.285 -3.474,-5.099 -3.701,-8.318 2.519,1.499 4.876,3.179 6.31,5.853 z"
   id="path228" />
		<path
   fill-rule="evenodd"
   clip-rule="evenodd"
   fill="#d3938f"
   d="m 851.798,140.925 c -2.339,-2.104 -3.471,-4.796 -3.829,-7.863 3.087,1.367 5.773,3.248 7.739,6.051 -1.615,-0.069 -3.066,0.217 -3.91,1.812 z"
   id="path230" />
		<path
   fill-rule="evenodd"
   clip-rule="evenodd"
   fill="#fbc746"
   d="m 617.986,90.922 c 2.591,-3.1 6.163,-1.979 9.35,-1.981 62.293,-0.045 124.587,-0.013 186.882,0.004 -5.869,3.389 -12.347,1.99 -18.524,2.002 -57.239,0.106 -114.479,-0.006 -171.718,-0.052 -1.997,-0.002 -3.994,0.018 -5.99,0.027 z"
   id="path232" />
	</g>
</g>
</svg>
